<?xml version="1.0" encoding="UTF-8"?>
<svg id="Layer_1" data-name="Layer 1" xmlns="http://www.w3.org/2000/svg" viewBox="0 0 803.29 182.82">
  <defs>
    <style>
      .cls-1 {
        fill: #000;
      }

      .cls-1, .cls-2 {
        stroke-width: 0px;
      }

      .cls-2 {
        fill: #fff;
      }
    </style>
  </defs>
  <path class="cls-1" d="M373.12,77.3c-32.55,13.8-66.35,22.59-100.9,28.51-11.04,1.89-19.63,3.95-26.47,15.83-8.91,15.47-22.27,28.72-35.23,41.36-7.03,6.86-16.74,11.8-26.11,15.22-10.04,3.67-19.72-.17-23.45-7.23-4.53-8.57-2.66-17.35,3.75-23.65,9.66-9.51,20.55-17.77,30.99-26.49,1.88-1.57,4.09-2.74,7.26-4.83-22.85,2.4-44.23,4.7-65.61,6.87-9.62.98-19.35,1.2-28.86,2.78-3.45.58-7.25,3.49-9.45,6.42-10.01,13.36-18.77,27.73-29.54,40.4-4.32,5.08-12.38,7.67-19.25,9.68-6.19,1.81-12.6-.19-16.41-6.3-3.79-6.08-2.84-12.6,1.34-17.59,6.91-8.23,14.79-15.66,22.36-23.32,1.76-1.78,3.94-3.13,7.34-5.79-12.92-.63-24.32-1.08-35.71-1.77-7.09-.43-14.18-1.05-21.24-1.88-5.16-.61-8.82-3.35-7.75-9.06,1.03-5.5,5.34-4.2,9.49-4.03,22.4.9,44.82,1.97,67.22,1.87,14.07-.06,28.14-2.09,42.37-4.78-6.78-2.16-13.83-3.71-20.27-6.63-7.7-3.49-15.61-7.24-22.09-12.52-8.68-7.07-6.38-19.69,4.45-21.97,9.92-2.09,21.06-2.07,30.96.14,24.19,5.41,45.9,16.52,64.38,33.48,1.65,1.52,4.52,2.86,6.6,2.58,29.03-3.79,58.01-7.88,87.01-11.93.47-.07.88-.6,2.67-1.88-4.21-1.14-7.7-1.58-10.75-2.99-11.52-5.32-23.19-10.43-34.18-16.7-5.15-2.94-9.75-9.31-6.03-15.13,2.72-4.26,9.05-7.93,14.2-8.61,17.34-2.29,34.06,2.04,49.78,9.07,12.42,5.56,24.03,12.94,36.31,18.84,3.65,1.75,8.77,2.59,12.54,1.5,11.09-3.21,21.84-7.6,31.03-10.91,0-10.85-1.04-20,.21-28.82C368.87,17.43,387.77.93,407.46.04c9.64-.43,18.33,2.28,23.17,11.41,4.56,8.59,3.76,17.91-2.4,24.88-8.03,9.06-17.51,16.89-26.78,24.77-4.46,3.79-9.86,6.49-16.79,10.93,7.39,5.33,13.57,10.03,20.02,14.31,2.8,1.86,6.19,2.84,9.28,4.28,16.68,7.8,30.59,7.15,46.2-5.98,16.72-14.06,37.09-24,56.54-34.5,6.66-3.59,15.3-4.27,23.11-4.64,3.77-.18,9.79,2.56,11.04,5.54,1.5,3.58.47,10.12-2.11,13.08-4.92,5.66-11.12,10.93-17.85,14.15-16.14,7.73-32.89,14.18-49.39,21.13-2.26.95-4.56,1.83-8.27,3.31,34.98,5.84,68.57,4,102.09,3.67,17.36-.17,34.73-.68,52.06-1.59,3.34-.18,7.28-2.23,9.7-4.65,19.18-19.25,39.11-37.56,64.41-48.46,6.85-2.95,14.74-4.52,22.21-4.75,9.46-.28,14.32,8.72,9.3,16.76-2.91,4.67-7.18,9.04-11.83,11.98-14.63,9.25-29.74,17.76-45.76,27.21,3.36.18,5.96.55,8.53.42,36.1-1.7,72.2-3.47,108.3-5.21,4.42-.21,10.06-1.81,10.96,4.69.92,6.63-4.82,7.91-9.6,8.36-11.54,1.09-23.13,1.58-36.61,2.44,5.62,4.69,10.53,7.68,13.95,11.89,5.83,7.19,12.24,14.52,15.67,22.91,5.33,13.04-4.77,23.81-17.96,18.91-10.06-3.74-19.92-9.92-27.74-17.27-9.01-8.47-15.45-19.62-23.51-29.19-2.16-2.57-6.18-5.2-9.28-5.13-41.82.98-83.63,2.43-127,3.82,2.66,1.94,4.53,3.21,6.3,4.6,8.71,6.84,17.7,13.37,25.96,20.72,3.69,3.29,6.66,7.92,8.64,12.5,4.47,10.33-1.49,20.29-12.58,19.16-10.17-1.03-21.44-3.35-29.65-8.9-14.93-10.09-28.55-22.37-41.55-34.95-7.91-7.66-15.42-11.96-26.94-13.12-30.48-3.06-60.94-7.32-91.02-13.15-21.61-4.18-33.08-12.9-47.15-29.1ZM380.5,57.23c11.89-4.59,30.21-18,35.68-27.22,2.02-3.42,3.68-9.86,1.93-12.02-2.39-2.94-8.5-4.85-12.5-4.17-20.08,3.44-31.5,23.46-25.11,43.41ZM226.47,122.56c-18.14,6.31-34.32,15.35-47.07,29.49-2.7,2.99-3.63,7.58-5.37,11.43,4.51-.49,9.73.32,13.4-1.69,16.73-9.17,28.94-23.23,39.04-39.22ZM549.33,122.15c15.38,19.04,32.76,35.07,57.94,39.58-14.15-20.68-35.43-31.05-57.94-39.58ZM297.21,78.58c-17.38-10.58-35.64-17.56-56.17-16.6,16.83,12.02,36.37,15.02,56.17,16.6ZM146.94,98.75c-17.36-10.67-35.45-19.06-56.53-17.2,17.04,11.65,36.82,14.22,56.53,17.2ZM737.16,121.48c9.37,13.05,17.46,27.57,37.18,32.58-8.44-17.68-21.47-26.61-37.18-32.58ZM77.07,140.96c-.76-.81-1.52-1.62-2.28-2.43-9.72,9.07-19.44,18.15-29.16,27.22.91.97,1.82,1.95,2.73,2.92,14-4.42,21.12-16.32,28.71-27.71ZM528.91,63.4c-.46-.98-.92-1.97-1.38-2.95-10.61,5.05-21.22,10.11-31.83,15.16.4.84.79,1.69,1.19,2.53,10.67-4.92,21.35-9.83,32.02-14.74ZM679.5,80.36c.44.78.88,1.57,1.32,2.35,10.11-5.65,20.23-11.3,30.34-16.95-.53-.94-1.05-1.87-1.58-2.81-10.03,5.8-20.06,11.61-30.09,17.41Z"/>
  <path class="cls-2" d="M380.5,57.23c-6.39-19.96,5.04-39.98,25.11-43.41,4-.68,10.11,1.23,12.5,4.17,1.75,2.16.09,8.6-1.93,12.02-5.47,9.23-23.79,22.63-35.68,27.22Z"/>
  <path class="cls-2" d="M226.47,122.56c-10.1,15.99-22.31,30.05-39.04,39.22-3.67,2.01-8.89,1.2-13.4,1.69,1.74-3.85,2.67-8.43,5.37-11.43,12.75-14.14,28.93-23.18,47.07-29.49Z"/>
  <path class="cls-2" d="M549.33,122.15c22.51,8.53,43.79,18.9,57.94,39.58-25.18-4.51-42.56-20.54-57.94-39.58Z"/>
  <path class="cls-2" d="M297.21,78.58c-19.81-1.58-39.34-4.58-56.17-16.6,20.54-.95,38.79,6.03,56.17,16.6Z"/>
  <path class="cls-2" d="M146.94,98.75c-19.71-2.98-39.49-5.54-56.53-17.2,21.08-1.86,39.18,6.52,56.53,17.2Z"/>
  <path class="cls-2" d="M737.16,121.48c15.71,5.97,28.74,14.91,37.18,32.58-19.72-5.02-27.81-19.53-37.18-32.58Z"/>
  <path class="cls-2" d="M77.07,140.96c-7.59,11.39-14.71,23.29-28.71,27.71-.91-.97-1.82-1.95-2.73-2.92,9.72-9.07,19.44-18.15,29.16-27.22.76.81,1.52,1.62,2.28,2.43Z"/>
  <path class="cls-2" d="M528.91,63.4c-10.67,4.91-21.35,9.83-32.02,14.74-.4-.84-.79-1.69-1.19-2.53,10.61-5.05,21.22-10.11,31.83-15.16.46.98.92,1.97,1.38,2.95Z"/>
  <path class="cls-2" d="M679.5,80.36c10.03-5.8,20.06-11.61,30.09-17.41.53.94,1.05,1.87,1.58,2.81-10.11,5.65-20.23,11.3-30.34,16.95-.44-.78-.88-1.57-1.32-2.35Z"/>
</svg>