<?xml version="1.0" encoding="UTF-8"?>
<svg id="Calque_2" data-name="Calque 2" xmlns="http://www.w3.org/2000/svg" viewBox="0 0 449.38 123.61">
  <defs>
    <style>
      .cls-1 {
        fill: #fff;
        stroke-width: 0px;
      }
    </style>
  </defs>
  <g>
    <path class="cls-1" d="M319.28,55.11c.31-1.28.46-2.19.46-2.79,0-.89-.31-1.63-.93-2.23-.62-.59-1.38-.88-2.26-.88s-1.57.24-2.05.71c-.46.45-.78.97-.97,1.53-.18.55-.37,1.29-.56,2.2l-3.7,16.51-4.17-15.38c-.37-1.35-.67-2.35-.9-2.97-.24-.64-.67-1.23-1.28-1.77-.63-.55-1.51-.83-2.62-.83s-1.97.27-2.62.79c-.63.52-1.1,1.14-1.38,1.85-.27.68-.56,1.64-.9,2.93l-4.13,15.37-3.7-16.5c-.29-1.39-.65-2.47-1.05-3.21-.44-.82-1.3-1.24-2.53-1.24-.89,0-1.66.3-2.27.9-.61.6-.92,1.34-.92,2.21,0,.65.15,1.56.46,2.79l5.05,20.45c.15.61.33,1.27.52,1.99.2.73.46,1.38.78,1.92.33.56.77,1.01,1.3,1.31.54.31,1.22.47,2.03.47,1.01,0,1.84-.26,2.46-.79.61-.51,1.04-1.1,1.28-1.74.23-.61.55-1.62.93-3l4.67-17.1,4.61,17.1h0c.41,1.46.72,2.45.94,3.04.24.64.67,1.21,1.27,1.71.62.52,1.45.78,2.46.78,1.07,0,1.92-.27,2.52-.8.58-.52,1-1.13,1.25-1.82.23-.65.52-1.68.87-3.07l5.06-20.45Z"/>
    <path class="cls-1" d="M326.81,81.24c1.01,0,1.84-.35,2.47-1.03.63-.68.94-1.7.94-3.03v-23.93c0-1.33-.32-2.35-.94-3.02-.63-.68-1.46-1.02-2.47-1.02s-1.8.35-2.43,1.03c-.62.68-.93,1.69-.93,3v23.93c0,1.32.32,2.33.94,3.02.63.69,1.44,1.04,2.41,1.04Z"/>
    <path class="cls-1" d="M359.43,49.21c-.95,0-1.71.33-2.27.99-.55.64-.83,1.6-.83,2.84v17.03l-11.26-17.03c-.33-.53-.65-1.03-.96-1.51-.32-.49-.64-.91-.95-1.23-.32-.33-.7-.59-1.13-.79-.43-.2-.95-.3-1.55-.3-.76,0-1.48.22-2.14.64-.66.43-1.14.99-1.42,1.67-.24.61-.35,1.41-.35,2.45v23.43c0,1.22.29,2.17.86,2.83.59.67,1.37,1.01,2.33,1.01s1.7-.33,2.3-.99c.59-.65.89-1.61.89-2.84v-16.75l10.97,16.82c.33.48.66.96,1,1.42.34.48.72.91,1.12,1.26.41.37.87.65,1.34.82.48.17,1.01.26,1.6.26,1.65,0,3.63-.75,3.63-4.31v-23.88c0-1.24-.28-2.2-.84-2.84-.57-.65-1.35-.99-2.33-.99Z"/>
    <path class="cls-1" d="M388.74,49.73h-19.56c-1.08,0-1.93.25-2.51.76-.6.51-.91,1.22-.91,2.1s.29,1.54.87,2.06c.56.52,1.42.78,2.55.78h6.4v21.75c0,1.33.32,2.35.94,3.03.63.69,1.46,1.03,2.45,1.03s1.8-.34,2.42-1.02c.62-.67.93-1.69.93-3.04v-21.75h6.4c1.12,0,1.99-.26,2.56-.77.59-.52.89-1.22.89-2.07s-.29-1.54-.88-2.07c-.57-.52-1.44-.78-2.58-.78Z"/>
    <path class="cls-1" d="M416.03,75.21h-14.03v-8.02h12.45c1.03,0,1.81-.25,2.33-.74.52-.49.78-1.14.78-1.91s-.27-1.42-.8-1.9c-.52-.47-1.3-.71-2.31-.71h-12.45v-6.84h13.55c1.06,0,1.86-.25,2.39-.73.54-.49.82-1.15.82-1.96s-.28-1.45-.82-1.94c-.53-.49-1.34-.73-2.39-.73h-16.24c-.91,0-1.68.14-2.27.41-.63.28-1.09.75-1.38,1.37-.28.6-.42,1.37-.42,2.3v22.83c0,1.41.33,2.45.97,3.1.64.65,1.69.98,3.11.98h16.72c1.04,0,1.85-.25,2.4-.75.55-.51.84-1.17.84-1.98s-.28-1.51-.84-2.02c-.55-.5-1.35-.75-2.4-.75Z"/>
    <path class="cls-1" d="M448.7,76.22c-.45-1.05-1.07-2.23-1.85-3.5-.78-1.29-1.69-2.52-2.69-3.66-.81-.92-1.66-1.67-2.54-2.24,2.28-.59,4.03-1.53,5.22-2.79,1.33-1.41,2-3.31,2-5.64,0-1.13-.2-2.23-.59-3.25-.4-1.02-.98-1.93-1.74-2.71-.76-.77-1.64-1.38-2.62-1.78-.81-.37-1.73-.62-2.74-.74-.99-.12-2.19-.18-3.58-.18h-10c-1.4,0-2.45.33-3.1.98-.65.65-.98,1.7-.98,3.1v23.37c0,1.3.3,2.31.88,3,.6.71,1.44,1.06,2.51,1.06,1,0,1.82-.34,2.44-1.01.62-.66.93-1.69.93-3.05v-9.45h1.84c1.05,0,1.92.14,2.6.41.67.27,1.35.79,2.01,1.54.68.77,1.47,1.91,2.34,3.39l2.46,4.1c.57.94,1.03,1.69,1.39,2.21.36.53.8.97,1.29,1.31.52.36,1.16.54,1.92.54.63,0,1.19-.13,1.67-.38.49-.25.88-.6,1.17-1.04.29-.45.43-.9.43-1.36,0-.43-.22-1.16-.68-2.24ZM441.26,61.12c-.48.56-1.21.97-2.15,1.21-.98.25-2.21.37-3.65.37h-5.2v-7.73h5.36c2.06,0,3.45.15,4.13.43.7.29,1.25.74,1.64,1.33.39.59.59,1.28.59,2.05,0,.99-.24,1.78-.72,2.34Z"/>
  </g>
  <path class="cls-1" d="M21.22,86.76H4.86v4.86H0v30.95h26.08v-30.95h-4.86v-4.86ZM24.31,93.4v27.39H1.78v-27.39h4.86v-4.86h12.81v4.86h4.86Z"/>
  <g>
    <path class="cls-1" d="M161.5,71.75c0-3.58-1.85-6.09-5.5-7.47,2.7-1.47,4.07-3.69,4.07-6.62,0-.91-.15-1.8-.45-2.62-.3-.82-.74-1.58-1.32-2.27-.57-.68-1.24-1.25-1.98-1.69-.88-.53-1.87-.89-2.97-1.08-1.07-.18-2.36-.27-3.82-.27h-9.84c-1.39,0-2.43.33-3.07.97-.65.64-.97,1.69-.97,3.11v22.83c0,1.39.32,2.43.95,3.08.63.66,1.67,1,3.09,1h9.28c1.61,0,3.04-.08,4.25-.24,1.22-.16,2.32-.45,3.27-.84,1.53-.67,2.76-1.72,3.66-3.13.9-1.4,1.35-3,1.35-4.75ZM142.42,54.97h4.68c2.18,0,3.82.24,4.86.73.98.45,1.46,1.36,1.46,2.77,0,.65-.16,1.26-.48,1.8-.41.75-.98,1.24-1.75,1.51-.8.28-1.96.42-3.45.42h-5.32v-7.23ZM148.72,75.48h-6.3v-8.25h6.09c2.07,0,3.64.33,4.66.99.99.63,1.47,1.64,1.47,3.07,0,2.82-1.94,4.18-5.92,4.18Z"/>
    <path class="cls-1" d="M191.62,79.82c.29-.44.43-.9.43-1.36,0-.44-.22-1.17-.68-2.24-.44-1.03-1.05-2.21-1.84-3.5-.78-1.29-1.69-2.52-2.69-3.66-.81-.92-1.66-1.67-2.54-2.24,2.28-.59,4.03-1.53,5.22-2.79,1.33-1.41,2-3.3,2-5.64,0-1.14-.2-2.23-.59-3.25-.39-1.02-.98-1.93-1.73-2.71-.76-.77-1.64-1.38-2.62-1.78-.81-.37-1.74-.62-2.74-.74-.99-.12-2.19-.18-3.58-.18h-10c-1.41,0-2.45.33-3.1.98-.65.65-.98,1.7-.98,3.1v23.37c0,1.3.3,2.31.88,3,.6.71,1.44,1.06,2.52,1.06,1,0,1.82-.34,2.44-1.01.62-.66.93-1.69.93-3.05v-9.45h1.84c1.05,0,1.92.14,2.6.41.67.27,1.35.79,2.01,1.54.68.77,1.47,1.91,2.34,3.39l2.46,4.1c.59.99,1.05,1.71,1.39,2.21.36.53.79.97,1.29,1.31.52.36,1.16.54,1.92.54.63,0,1.19-.13,1.67-.38.49-.25.88-.6,1.16-1.04ZM183.94,61.12c-.49.56-1.21.97-2.15,1.21-.97.25-2.2.37-3.65.37h-5.2v-7.73h5.36c2.06,0,3.45.15,4.13.43.7.29,1.25.74,1.64,1.33.39.59.59,1.28.59,2.05,0,1-.24,1.78-.72,2.33Z"/>
    <path class="cls-1" d="M200.32,81.24c1.01,0,1.85-.35,2.48-1.03.63-.68.94-1.7.94-3.03v-23.93c0-1.33-.32-2.35-.94-3.02-.63-.68-1.46-1.02-2.48-1.02s-1.8.35-2.42,1.03c-.62.68-.93,1.69-.93,3.01v23.93c0,1.32.32,2.33.94,3.02.63.69,1.44,1.04,2.41,1.04Z"/>
    <path class="cls-1" d="M229.42,80.2c1.62-.69,2.97-1.6,4.02-2.71,1.04-1.11,1.82-2.25,2.31-3.41.49-1.16.74-2.25.74-3.26,0-.84-.3-1.56-.88-2.13-.58-.57-1.29-.85-2.1-.85-.95,0-1.66.3-2.11.88-.41.53-.75,1.22-1.02,2.04-.6,1.63-1.49,2.88-2.65,3.72-1.16.83-2.61,1.26-4.3,1.26-1.56,0-2.94-.37-4.1-1.11-1.15-.74-2.06-1.87-2.7-3.37-.64-1.52-.97-3.46-.97-5.77,0-3.45.73-6.14,2.18-7.99,1.43-1.83,3.38-2.76,5.79-2.76,1.52,0,2.81.36,3.83,1.06,1.04.71,1.96,1.81,2.73,3.27.5.95.95,1.61,1.38,2.01.45.43,1.12.65,1.98.65.79,0,1.48-.31,2.03-.91.55-.6.83-1.29.83-2.07,0-1.34-.53-2.78-1.59-4.27-1.05-1.48-2.57-2.73-4.52-3.73-1.96-1-4.21-1.5-6.71-1.5-2.04,0-4,.37-5.81,1.1-1.81.73-3.42,1.81-4.77,3.21-1.35,1.4-2.4,3.1-3.12,5.07-.72,1.95-1.09,4.2-1.09,6.67,0,1.52.15,2.98.43,4.33.29,1.36.72,2.65,1.3,3.85.58,1.2,1.28,2.3,2.1,3.27.92,1.07,1.94,1.95,3.03,2.6,1.09.66,2.32,1.15,3.66,1.46,1.33.31,2.82.46,4.44.46,2.15,0,4.06-.35,5.68-1.04Z"/>
    <path class="cls-1" d="M259.94,77.42c.29.5.62,1.05,1,1.66.4.64.89,1.17,1.46,1.55.59.4,1.35.6,2.27.6.99,0,1.79-.28,2.38-.83.59-.55.9-1.22.9-1.99,0-.65-.16-1.33-.49-2.01-.31-.65-.78-1.42-1.39-2.29l-8.46-12.13,7.28-6.9c.98-.94,1.48-1.92,1.48-2.9,0-.83-.31-1.54-.91-2.12-.6-.57-1.4-.86-2.36-.86-.74,0-1.35.17-1.81.49-.42.3-.92.75-1.52,1.39l-11.54,12.04v-9.87c0-1.33-.32-2.35-.94-3.02-.63-.68-1.47-1.02-2.47-1.02s-1.85.35-2.46,1.04c-.6.68-.9,1.69-.9,3v22.58c0,.96.02,1.71.06,2.24.04.55.17,1.04.39,1.47.29.52.7.93,1.24,1.24.53.3,1.09.46,1.67.46.99,0,1.82-.34,2.46-1.02.63-.67.96-1.69.96-3.04v-6.14l4.67-4.47,7.06,10.86Z"/>
  </g>
  <g>
    <path class="cls-1" d="M304.09,93.11c-2.3-1.3-5.08-1.96-8.26-1.96-2.35,0-4.48.37-6.33,1.11-1.86.74-3.46,1.82-4.75,3.22-1.29,1.39-2.3,3.1-2.98,5.08-.68,1.97-1.02,4.17-1.02,6.52s.33,4.48.98,6.46c.65,1.99,1.63,3.73,2.91,5.15,1.28,1.42,2.9,2.54,4.81,3.32,1.91.78,4.09,1.18,6.5,1.18s4.6-.38,6.48-1.14c1.89-.76,3.5-1.87,4.79-3.31,1.29-1.43,2.28-3.15,2.92-5.11.65-1.95.97-4.13.97-6.5,0-3.21-.6-6.04-1.77-8.43-1.18-2.4-2.95-4.28-5.25-5.58ZM303.12,113.02c-.75,1.58-1.77,2.76-3.03,3.51-1.26.75-2.67,1.14-4.18,1.14-1.18,0-2.28-.22-3.26-.66-.98-.44-1.87-1.1-2.63-1.98-.76-.88-1.36-2.01-1.78-3.36-.42-1.36-.64-2.91-.64-4.59s.21-3.2.64-4.54c.42-1.33,1-2.43,1.72-3.28.72-.84,1.59-1.5,2.58-1.94,1-.44,2.1-.67,3.28-.67,1.66,0,3.15.41,4.42,1.21,1.27.8,2.27,1.99,2.96,3.56.7,1.58,1.05,3.49,1.05,5.65,0,2.34-.38,4.34-1.14,5.94Z"/>
    <path class="cls-1" d="M349.41,91.15c-.88,0-1.57.24-2.05.71-.45.45-.78.97-.97,1.53-.18.55-.37,1.29-.56,2.2l-3.7,16.51-4.17-15.38c-.37-1.35-.67-2.35-.9-2.97-.24-.64-.67-1.23-1.28-1.77-.63-.55-1.51-.83-2.62-.83s-1.97.27-2.62.8c-.63.52-1.1,1.14-1.38,1.85-.27.67-.56,1.63-.9,2.93l-4.13,15.37-3.7-16.5c-.29-1.38-.65-2.46-1.05-3.21-.44-.82-1.29-1.24-2.53-1.24-.9,0-1.66.3-2.27.9-.61.6-.92,1.34-.92,2.21,0,.65.15,1.57.46,2.79l5.05,20.45c.15.61.33,1.27.52,1.99.2.73.46,1.38.78,1.92.33.56.77,1.01,1.3,1.31.54.31,1.22.47,2.03.47,1.01,0,1.83-.27,2.46-.79.61-.51,1.04-1.1,1.28-1.74.23-.61.55-1.62.93-3l4.67-17.1,4.61,17.1h0c.41,1.45.72,2.45.94,3.04.24.64.67,1.21,1.27,1.71.62.52,1.45.78,2.46.78,1.07,0,1.91-.27,2.52-.8.58-.52,1-1.13,1.25-1.82.23-.65.52-1.68.87-3.06l5.06-20.45c.31-1.27.46-2.19.46-2.79,0-.89-.31-1.63-.93-2.22-.62-.59-1.38-.88-2.26-.88Z"/>
    <path class="cls-1" d="M180.31,106.22c2.7-1.47,4.07-3.69,4.07-6.62,0-.92-.15-1.8-.45-2.62-.3-.82-.74-1.58-1.32-2.27-.58-.68-1.24-1.25-1.98-1.69-.87-.53-1.87-.89-2.97-1.08-1.08-.18-2.36-.27-3.82-.27h-9.84c-1.39,0-2.42.33-3.07.97-.65.64-.97,1.69-.97,3.11v22.83c0,1.39.32,2.43.95,3.08.63.66,1.67,1,3.09,1h9.28c1.6,0,3.03-.08,4.25-.24,1.23-.16,2.33-.45,3.27-.84,1.53-.67,2.76-1.72,3.66-3.13.9-1.41,1.35-3.01,1.35-4.76,0-3.58-1.85-6.09-5.5-7.47ZM166.73,96.91h4.68c2.18,0,3.82.24,4.86.73.98.45,1.46,1.36,1.46,2.77,0,.66-.16,1.26-.48,1.8-.41.75-.98,1.25-1.75,1.51-.79.28-1.95.42-3.45.42h-5.32v-7.23ZM173.03,117.42h-6.3v-8.24h6.09c2.07,0,3.64.33,4.66.99.99.64,1.47,1.64,1.47,3.07,0,2.81-1.94,4.18-5.92,4.18Z"/>
    <path class="cls-1" d="M211.68,91.15c-1.01,0-1.83.34-2.45,1.02-.6.67-.91,1.69-.91,3.02v15.06c0,2.51-.48,4.4-1.43,5.62-.93,1.19-2.56,1.8-4.85,1.8-1.67,0-2.98-.3-3.89-.89-.9-.59-1.54-1.42-1.9-2.49-.37-1.1-.55-2.5-.55-4.16v-14.94c0-1.32-.31-2.33-.92-3-.62-.69-1.46-1.04-2.5-1.04s-1.82.35-2.44,1.04c-.61.68-.92,1.69-.92,3v14.6c0,2.31.26,4.33.76,6.01.51,1.69,1.32,3.1,2.42,4.19,1.09,1.09,2.52,1.9,4.25,2.42,1.7.51,3.76.77,6.12.77,1.98,0,3.74-.24,5.23-.72,1.5-.48,2.83-1.25,3.97-2.31,1.32-1.24,2.23-2.69,2.71-4.33.47-1.61.71-3.64.71-6.03v-14.6c0-1.33-.32-2.35-.94-3.02-.63-.68-1.46-1.02-2.48-1.02Z"/>
    <path class="cls-1" d="M244.46,114.65c-.79-1.29-1.7-2.52-2.69-3.66-.81-.92-1.66-1.67-2.54-2.24,2.28-.6,4.03-1.53,5.22-2.79,1.33-1.41,2-3.31,2-5.64,0-1.14-.2-2.23-.59-3.25-.39-1.03-.98-1.94-1.74-2.71-.76-.77-1.64-1.37-2.62-1.78-.81-.37-1.73-.62-2.74-.74-.99-.12-2.19-.18-3.58-.18h-10.01c-1.41,0-2.45.33-3.1.98-.65.65-.98,1.69-.98,3.1v23.37c0,1.3.3,2.31.88,3,.6.7,1.45,1.06,2.52,1.06,1,0,1.82-.34,2.44-1.01.62-.66.93-1.69.93-3.05v-9.45h1.84c1.04,0,1.92.14,2.6.41.67.27,1.34.79,2.01,1.53.68.77,1.47,1.91,2.34,3.39l2.46,4.1c.6.99,1.05,1.72,1.39,2.21.36.53.79.97,1.29,1.31.52.36,1.17.54,1.92.54.63,0,1.19-.13,1.67-.38.49-.25.88-.6,1.16-1.04.29-.44.43-.9.43-1.36,0-.43-.22-1.17-.68-2.24-.44-1.04-1.06-2.22-1.84-3.5ZM238.86,103.05c-.49.56-1.21.97-2.15,1.21-.97.25-2.2.37-3.65.37h-5.2v-7.73h5.37c2.06,0,3.45.15,4.13.43.7.29,1.25.74,1.64,1.33.39.59.59,1.28.59,2.05,0,1-.24,1.78-.72,2.33Z"/>
    <path class="cls-1" d="M274.97,114.65c-.79-1.29-1.7-2.52-2.69-3.66-.81-.92-1.66-1.67-2.54-2.24,2.28-.6,4.03-1.53,5.22-2.79,1.33-1.41,2-3.31,2-5.64,0-1.14-.2-2.23-.59-3.25-.39-1.03-.98-1.94-1.74-2.71-.76-.77-1.64-1.37-2.62-1.78-.81-.37-1.73-.62-2.74-.74-.99-.12-2.19-.18-3.58-.18h-10.01c-1.41,0-2.45.33-3.1.98-.65.65-.98,1.69-.98,3.1v23.37c0,1.3.3,2.31.88,3,.6.7,1.45,1.06,2.52,1.06,1,0,1.82-.34,2.44-1.01.62-.66.93-1.69.93-3.05v-9.45h1.84c1.04,0,1.92.14,2.6.41.67.27,1.34.79,2.01,1.53.68.77,1.47,1.91,2.34,3.39l2.46,4.1c.6.99,1.05,1.72,1.39,2.21.36.53.79.97,1.29,1.31.52.36,1.17.54,1.92.54.63,0,1.19-.13,1.67-.38.49-.25.88-.6,1.16-1.04.29-.44.43-.9.43-1.36,0-.43-.22-1.17-.68-2.24-.44-1.04-1.06-2.22-1.84-3.5ZM269.38,103.05c-.49.56-1.21.97-2.15,1.21-.97.25-2.2.37-3.65.37h-5.2v-7.73h5.37c2.06,0,3.45.15,4.13.43.7.29,1.25.74,1.64,1.33.39.59.59,1.28.59,2.05,0,1-.24,1.78-.72,2.33Z"/>
  </g>
  <path class="cls-1" d="M46.07,49.69c-.43.43-.43,1.12,0,1.54s1.12.43,1.54,0c.43-.43.43-1.12,0-1.54s-1.12-.43-1.54,0Z"/>
  <path class="cls-1" d="M149.08,91.63v-4.86h-16.36v4.86h-3.08v-29.16h-4.86v-4.86h-16.36v4.86h-7.94v-4.86h-16.36v4.86h-3.91c-.33-.05-3.65-.71-3.86-7.66-.14-5.45,3.39-9.01,9.7-9.77,8.73-1.04,20.56-7.11,25.89-17.95,1.99-4.05,2.18-6.76.64-8.25-3.13-2.96-11.24,1.38-12.16,1.87-3.96,2.18-6.52,3.6-14.44,5.62,3.46-4.24,10.53-14.51,6.99-24.11-.52-1.3-1.38-1.71-1.99-1.8-2.51-.45-5.83,2.96-10.29,7.82l-1.38,1.49c-1.78,1.94-4.65,4.67-7.66,7.54-4.58,4.34-9.27,8.82-11.86,12-3.96,4.84-7.87,6.88-8.25,7.07-11.93,2.23-18.73,7.9-20.25,16.81-1.52,8.94-2.11,17.36,3.89,18.42,1.54.28,3.63.21,5.83.14,4.6-.17,9.84-.36,10.6,2.8.55,2.35.71,9.18.43,19.8-.17,6.69-.45,12.4-.45,12.45s-.05,5.1-3.18,5.45c-5.19.57-7.87,3.11-8.13,7.71-.05.57-.07,1.16-.02,1.83l.05.83h113.65v-30.94h-4.86ZM46.05,55.26h-3.79s-.05-.02-.05-.05v-3.58c0-1.71,1-3.37,2.63-3.86,2.63-.81,5.05,1.14,5.05,3.65,0,2.13-1.73,3.84-3.84,3.84ZM127.86,120.8h-46.83v-27.39h46.83v27.39ZM127.86,91.63h-46.83v-27.39h4.86v-4.86h12.8v4.86h11.5v-4.86h12.8v4.86h4.86v27.39Z"/>
</svg>