<svg viewBox="0 0 449.38 123.61" xmlns="http://www.w3.org/2000/svg"><g fill="#1d1d1b"><path d="m319.28 55.11c.31-1.28.46-2.19.46-2.79 0-.89-.31-1.63-.93-2.23-.62-.59-1.38-.88-2.26-.88s-1.57.24-2.05.71c-.46.45-.78.97-.97 1.53-.18.55-.37 1.29-.56 2.2l-3.7 16.51-4.17-15.38c-.37-1.35-.67-2.35-.9-2.97-.24-.64-.67-1.23-1.28-1.77-.63-.55-1.51-.83-2.62-.83s-1.97.27-2.62.79c-.63.52-1.1 1.14-1.38 1.85-.27.68-.56 1.64-.9 2.93l-4.13 15.37-3.7-16.5c-.29-1.39-.65-2.47-1.05-3.21-.44-.82-1.3-1.24-2.53-1.24-.89 0-1.66.3-2.27.9s-.92 1.34-.92 2.21c0 .65.15 1.56.46 2.79l5.05 20.45c.15.61.33 1.27.52 1.99.2.73.46 1.38.78 1.92.33.56.77 1.01 1.3 1.31.54.31 1.22.47 2.03.47 1.01 0 1.84-.26 2.46-.79.61-.51 1.04-1.1 1.28-1.74.23-.61.55-1.62.93-3l4.67-17.1 4.61 17.1c.41 1.46.72 2.45.94 3.04.24.64.67 1.21 1.27 1.71.62.52 1.45.78 2.46.78 1.07 0 1.92-.27 2.52-.8.58-.52 1-1.13 1.25-1.82.23-.65.52-1.68.87-3.07l5.06-20.45z"/><path d="m326.81 81.24c1.01 0 1.84-.35 2.47-1.03s.94-1.7.94-3.03v-23.93c0-1.33-.32-2.35-.94-3.02-.63-.68-1.46-1.02-2.47-1.02s-1.8.35-2.43 1.03c-.62.68-.93 1.69-.93 3v23.93c0 1.32.32 2.33.94 3.02.63.69 1.44 1.04 2.41 1.04z"/><path d="m359.43 49.21c-.95 0-1.71.33-2.27.99-.55.64-.83 1.6-.83 2.84v17.03l-11.26-17.03c-.33-.53-.65-1.03-.96-1.51-.32-.49-.64-.91-.95-1.23-.32-.33-.7-.59-1.13-.79s-.95-.3-1.55-.3c-.76 0-1.48.22-2.14.64-.66.43-1.14.99-1.42 1.67-.24.61-.35 1.41-.35 2.45v23.43c0 1.22.29 2.17.86 2.83.59.67 1.37 1.01 2.33 1.01s1.7-.33 2.3-.99c.59-.65.89-1.61.89-2.84v-16.75l10.97 16.82c.33.48.66.96 1 1.42.34.48.72.91 1.12 1.26.41.37.87.65 1.34.82.48.17 1.01.26 1.6.26 1.65 0 3.63-.75 3.63-4.31v-23.88c0-1.24-.28-2.2-.84-2.84-.57-.65-1.35-.99-2.33-.99z"/><path d="m388.74 49.73h-19.56c-1.08 0-1.93.25-2.51.76-.6.51-.91 1.22-.91 2.1s.29 1.54.87 2.06c.56.52 1.42.78 2.55.78h6.4v21.75c0 1.33.32 2.35.94 3.03.63.69 1.46 1.03 2.45 1.03s1.8-.34 2.42-1.02c.62-.67.93-1.69.93-3.04v-21.75h6.4c1.12 0 1.99-.26 2.56-.77.59-.52.89-1.22.89-2.07s-.29-1.54-.88-2.07c-.57-.52-1.44-.78-2.58-.78z"/><path d="m416.03 75.21h-14.03v-8.02h12.45c1.03 0 1.81-.25 2.33-.74s.78-1.14.78-1.91-.27-1.42-.8-1.9c-.52-.47-1.3-.71-2.31-.71h-12.45v-6.84h13.55c1.06 0 1.86-.25 2.39-.73.54-.49.82-1.15.82-1.96s-.28-1.45-.82-1.94c-.53-.49-1.34-.73-2.39-.73h-16.24c-.91 0-1.68.14-2.27.41-.63.28-1.09.75-1.38 1.37-.28.6-.42 1.37-.42 2.3v22.83c0 1.41.33 2.45.97 3.1s1.69.98 3.11.98h16.72c1.04 0 1.85-.25 2.4-.75.55-.51.84-1.17.84-1.98s-.28-1.51-.84-2.02c-.55-.5-1.35-.75-2.4-.75z"/><path d="m448.7 76.22c-.45-1.05-1.07-2.23-1.85-3.5-.78-1.29-1.69-2.52-2.69-3.66-.81-.92-1.66-1.67-2.54-2.24 2.28-.59 4.03-1.53 5.22-2.79 1.33-1.41 2-3.31 2-5.64 0-1.13-.2-2.23-.59-3.25-.4-1.02-.98-1.93-1.74-2.71-.76-.77-1.64-1.38-2.62-1.78-.81-.37-1.73-.62-2.74-.74-.99-.12-2.19-.18-3.58-.18h-10c-1.4 0-2.45.33-3.1.98s-.98 1.7-.98 3.1v23.37c0 1.3.3 2.31.88 3 .6.71 1.44 1.06 2.51 1.06 1 0 1.82-.34 2.44-1.01.62-.66.93-1.69.93-3.05v-9.45h1.84c1.05 0 1.92.14 2.6.41.67.27 1.35.79 2.01 1.54.68.77 1.47 1.91 2.34 3.39l2.46 4.1c.57.94 1.03 1.69 1.39 2.21.36.53.8.97 1.29 1.31.52.36 1.16.54 1.92.54.63 0 1.19-.13 1.67-.38.49-.25.88-.6 1.17-1.04.29-.45.43-.9.43-1.36 0-.43-.22-1.16-.68-2.24zm-7.44-15.1c-.48.56-1.21.97-2.15 1.21-.98.25-2.21.37-3.65.37h-5.2v-7.73h5.36c2.06 0 3.45.15 4.13.43.7.29 1.25.74 1.64 1.33s.59 1.28.59 2.05c0 .99-.24 1.78-.72 2.34z"/><path d="m161.5 71.75c0-3.58-1.85-6.09-5.5-7.47 2.7-1.47 4.07-3.69 4.07-6.62 0-.91-.15-1.8-.45-2.62s-.74-1.58-1.32-2.27c-.57-.68-1.24-1.25-1.98-1.69-.88-.53-1.87-.89-2.97-1.08-1.07-.18-2.36-.27-3.82-.27h-9.84c-1.39 0-2.43.33-3.07.97-.65.64-.97 1.69-.97 3.11v22.83c0 1.39.32 2.43.95 3.08.63.66 1.67 1 3.09 1h9.28c1.61 0 3.04-.08 4.25-.24 1.22-.16 2.32-.45 3.27-.84 1.53-.67 2.76-1.72 3.66-3.13.9-1.4 1.35-3 1.35-4.75zm-19.08-16.78h4.68c2.18 0 3.82.24 4.86.73.98.45 1.46 1.36 1.46 2.77 0 .65-.16 1.26-.48 1.8-.41.75-.98 1.24-1.75 1.51-.8.28-1.96.42-3.45.42h-5.32zm6.3 20.51h-6.3v-8.25h6.09c2.07 0 3.64.33 4.66.99.99.63 1.47 1.64 1.47 3.07 0 2.82-1.94 4.18-5.92 4.18z"/><path d="m191.62 79.82c.29-.44.43-.9.43-1.36 0-.44-.22-1.17-.68-2.24-.44-1.03-1.05-2.21-1.84-3.5-.78-1.29-1.69-2.52-2.69-3.66-.81-.92-1.66-1.67-2.54-2.24 2.28-.59 4.03-1.53 5.22-2.79 1.33-1.41 2-3.3 2-5.64 0-1.14-.2-2.23-.59-3.25s-.98-1.93-1.73-2.71c-.76-.77-1.64-1.38-2.62-1.78-.81-.37-1.74-.62-2.74-.74-.99-.12-2.19-.18-3.58-.18h-10c-1.41 0-2.45.33-3.1.98s-.98 1.7-.98 3.1v23.37c0 1.3.3 2.31.88 3 .6.71 1.44 1.06 2.52 1.06 1 0 1.82-.34 2.44-1.01.62-.66.93-1.69.93-3.05v-9.45h1.84c1.05 0 1.92.14 2.6.41.67.27 1.35.79 2.01 1.54.68.77 1.47 1.91 2.34 3.39l2.46 4.1c.59.99 1.05 1.71 1.39 2.21.36.53.79.97 1.29 1.31.52.36 1.16.54 1.92.54.63 0 1.19-.13 1.67-.38.49-.25.88-.6 1.16-1.04zm-7.68-18.7c-.49.56-1.21.97-2.15 1.21-.97.25-2.2.37-3.65.37h-5.2v-7.73h5.36c2.06 0 3.45.15 4.13.43.7.29 1.25.74 1.64 1.33s.59 1.28.59 2.05c0 1-.24 1.78-.72 2.33z"/><path d="m200.32 81.24c1.01 0 1.85-.35 2.48-1.03s.94-1.7.94-3.03v-23.93c0-1.33-.32-2.35-.94-3.02-.63-.68-1.46-1.02-2.48-1.02s-1.8.35-2.42 1.03-.93 1.69-.93 3.01v23.93c0 1.32.32 2.33.94 3.02.63.69 1.44 1.04 2.41 1.04z"/><path d="m229.42 80.2c1.62-.69 2.97-1.6 4.02-2.71 1.04-1.11 1.82-2.25 2.31-3.41s.74-2.25.74-3.26c0-.84-.3-1.56-.88-2.13s-1.29-.85-2.1-.85c-.95 0-1.66.3-2.11.88-.41.53-.75 1.22-1.02 2.04-.6 1.63-1.49 2.88-2.65 3.72-1.16.83-2.61 1.26-4.3 1.26-1.56 0-2.94-.37-4.1-1.11-1.15-.74-2.06-1.87-2.7-3.37-.64-1.52-.97-3.46-.97-5.77 0-3.45.73-6.14 2.18-7.99 1.43-1.83 3.38-2.76 5.79-2.76 1.52 0 2.81.36 3.83 1.06 1.04.71 1.96 1.81 2.73 3.27.5.95.95 1.61 1.38 2.01.45.43 1.12.65 1.98.65.79 0 1.48-.31 2.03-.91s.83-1.29.83-2.07c0-1.34-.53-2.78-1.59-4.27-1.05-1.48-2.57-2.73-4.52-3.73-1.96-1-4.21-1.5-6.71-1.5-2.04 0-4 .37-5.81 1.1s-3.42 1.81-4.77 3.21-2.4 3.1-3.12 5.07c-.72 1.95-1.09 4.2-1.09 6.67 0 1.52.15 2.98.43 4.33.29 1.36.72 2.65 1.3 3.85s1.28 2.3 2.1 3.27c.92 1.07 1.94 1.95 3.03 2.6 1.09.66 2.32 1.15 3.66 1.46 1.33.31 2.82.46 4.44.46 2.15 0 4.06-.35 5.68-1.04z"/><path d="m259.94 77.42c.29.5.62 1.05 1 1.66.4.64.89 1.17 1.46 1.55.59.4 1.35.6 2.27.6.99 0 1.79-.28 2.38-.83s.9-1.22.9-1.99c0-.65-.16-1.33-.49-2.01-.31-.65-.78-1.42-1.39-2.29l-8.46-12.13 7.28-6.9c.98-.94 1.48-1.92 1.48-2.9 0-.83-.31-1.54-.91-2.12-.6-.57-1.4-.86-2.36-.86-.74 0-1.35.17-1.81.49-.42.3-.92.75-1.52 1.39l-11.54 12.04v-9.87c0-1.33-.32-2.35-.94-3.02-.63-.68-1.47-1.02-2.47-1.02s-1.85.35-2.46 1.04c-.6.68-.9 1.69-.9 3v22.58c0 .96.02 1.71.06 2.24.04.55.17 1.04.39 1.47.29.52.7.93 1.24 1.24.53.3 1.09.46 1.67.46.99 0 1.82-.34 2.46-1.02.63-.67.96-1.69.96-3.04v-6.14l4.67-4.47 7.06 10.86z"/><path d="m304.09 93.11c-2.3-1.3-5.08-1.96-8.26-1.96-2.35 0-4.48.37-6.33 1.11-1.86.74-3.46 1.82-4.75 3.22-1.29 1.39-2.3 3.1-2.98 5.08-.68 1.97-1.02 4.17-1.02 6.52s.33 4.48.98 6.46c.65 1.99 1.63 3.73 2.91 5.15s2.9 2.54 4.81 3.32 4.09 1.18 6.5 1.18 4.6-.38 6.48-1.14c1.89-.76 3.5-1.87 4.79-3.31 1.29-1.43 2.28-3.15 2.92-5.11.65-1.95.97-4.13.97-6.5 0-3.21-.6-6.04-1.77-8.43-1.18-2.4-2.95-4.28-5.25-5.58zm-.97 19.91c-.75 1.58-1.77 2.76-3.03 3.51s-2.67 1.14-4.18 1.14c-1.18 0-2.28-.22-3.26-.66s-1.87-1.1-2.63-1.98-1.36-2.01-1.78-3.36c-.42-1.36-.64-2.91-.64-4.59s.21-3.2.64-4.54c.42-1.33 1-2.43 1.72-3.28.72-.84 1.59-1.5 2.58-1.94 1-.44 2.1-.67 3.28-.67 1.66 0 3.15.41 4.42 1.21s2.27 1.99 2.96 3.56c.7 1.58 1.05 3.49 1.05 5.65 0 2.34-.38 4.34-1.14 5.94z"/><path d="m349.41 91.15c-.88 0-1.57.24-2.05.71-.45.45-.78.97-.97 1.53-.18.55-.37 1.29-.56 2.2l-3.7 16.51-4.17-15.38c-.37-1.35-.67-2.35-.9-2.97-.24-.64-.67-1.23-1.28-1.77-.63-.55-1.51-.83-2.62-.83s-1.97.27-2.62.8c-.63.52-1.1 1.14-1.38 1.85-.27.67-.56 1.63-.9 2.93l-4.13 15.37-3.7-16.5c-.29-1.38-.65-2.46-1.05-3.21-.44-.82-1.29-1.24-2.53-1.24-.9 0-1.66.3-2.27.9s-.92 1.34-.92 2.21c0 .65.15 1.57.46 2.79l5.05 20.45c.15.61.33 1.27.52 1.99.2.73.46 1.38.78 1.92.33.56.77 1.01 1.3 1.31.54.31 1.22.47 2.03.47 1.01 0 1.83-.27 2.46-.79.61-.51 1.04-1.1 1.28-1.74.23-.61.55-1.62.93-3l4.67-17.1 4.61 17.1c.41 1.45.72 2.45.94 3.04.24.64.67 1.21 1.27 1.71.62.52 1.45.78 2.46.78 1.07 0 1.91-.27 2.52-.8.58-.52 1-1.13 1.25-1.82.23-.65.52-1.68.87-3.06l5.06-20.45c.31-1.27.46-2.19.46-2.79 0-.89-.31-1.63-.93-2.22s-1.38-.88-2.26-.88z"/><path d="m180.31 106.22c2.7-1.47 4.07-3.69 4.07-6.62 0-.92-.15-1.8-.45-2.62s-.74-1.58-1.32-2.27c-.58-.68-1.24-1.25-1.98-1.69-.87-.53-1.87-.89-2.97-1.08-1.08-.18-2.36-.27-3.82-.27h-9.84c-1.39 0-2.42.33-3.07.97s-.97 1.69-.97 3.11v22.83c0 1.39.32 2.43.95 3.08.63.66 1.67 1 3.09 1h9.28c1.6 0 3.03-.08 4.25-.24 1.23-.16 2.33-.45 3.27-.84 1.53-.67 2.76-1.72 3.66-3.13s1.35-3.01 1.35-4.76c0-3.58-1.85-6.09-5.5-7.47zm-13.58-9.31h4.68c2.18 0 3.82.24 4.86.73.98.45 1.46 1.36 1.46 2.77 0 .66-.16 1.26-.48 1.8-.41.75-.98 1.25-1.75 1.51-.79.28-1.95.42-3.45.42h-5.32zm6.3 20.51h-6.3v-8.24h6.09c2.07 0 3.64.33 4.66.99.99.64 1.47 1.64 1.47 3.07 0 2.81-1.94 4.18-5.92 4.18z"/><path d="m211.68 91.15c-1.01 0-1.83.34-2.45 1.02-.6.67-.91 1.69-.91 3.02v15.06c0 2.51-.48 4.4-1.43 5.62-.93 1.19-2.56 1.8-4.85 1.8-1.67 0-2.98-.3-3.89-.89-.9-.59-1.54-1.42-1.9-2.49-.37-1.1-.55-2.5-.55-4.16v-14.94c0-1.32-.31-2.33-.92-3-.62-.69-1.46-1.04-2.5-1.04s-1.82.35-2.44 1.04c-.61.68-.92 1.69-.92 3v14.6c0 2.31.26 4.33.76 6.01.51 1.69 1.32 3.1 2.42 4.19 1.09 1.09 2.52 1.9 4.25 2.42 1.7.51 3.76.77 6.12.77 1.98 0 3.74-.24 5.23-.72 1.5-.48 2.83-1.25 3.97-2.31 1.32-1.24 2.23-2.69 2.71-4.33.47-1.61.71-3.64.71-6.03v-14.6c0-1.33-.32-2.35-.94-3.02-.63-.68-1.46-1.02-2.48-1.02z"/><path d="m244.46 114.65c-.79-1.29-1.7-2.52-2.69-3.66-.81-.92-1.66-1.67-2.54-2.24 2.28-.6 4.03-1.53 5.22-2.79 1.33-1.41 2-3.31 2-5.64 0-1.14-.2-2.23-.59-3.25-.39-1.03-.98-1.94-1.74-2.71s-1.64-1.37-2.62-1.78c-.81-.37-1.73-.62-2.74-.74-.99-.12-2.19-.18-3.58-.18h-10.01c-1.41 0-2.45.33-3.1.98s-.98 1.69-.98 3.1v23.37c0 1.3.3 2.31.88 3 .6.7 1.45 1.06 2.52 1.06 1 0 1.82-.34 2.44-1.01.62-.66.93-1.69.93-3.05v-9.45h1.84c1.04 0 1.92.14 2.6.41.67.27 1.34.79 2.01 1.53.68.77 1.47 1.91 2.34 3.39l2.46 4.1c.6.99 1.05 1.72 1.39 2.21.36.53.79.97 1.29 1.31.52.36 1.17.54 1.92.54.63 0 1.19-.13 1.67-.38.49-.25.88-.6 1.16-1.04.29-.44.43-.9.43-1.36 0-.43-.22-1.17-.68-2.24-.44-1.04-1.06-2.22-1.84-3.5zm-5.6-11.6c-.49.56-1.21.97-2.15 1.21-.97.25-2.2.37-3.65.37h-5.2v-7.73h5.37c2.06 0 3.45.15 4.13.43.7.29 1.25.74 1.64 1.33s.59 1.28.59 2.05c0 1-.24 1.78-.72 2.33z"/><path d="m274.97 114.65c-.79-1.29-1.7-2.52-2.69-3.66-.81-.92-1.66-1.67-2.54-2.24 2.28-.6 4.03-1.53 5.22-2.79 1.33-1.41 2-3.31 2-5.64 0-1.14-.2-2.23-.59-3.25-.39-1.03-.98-1.94-1.74-2.71s-1.64-1.37-2.62-1.78c-.81-.37-1.73-.62-2.74-.74-.99-.12-2.19-.18-3.58-.18h-10.01c-1.41 0-2.45.33-3.1.98s-.98 1.69-.98 3.1v23.37c0 1.3.3 2.31.88 3 .6.7 1.45 1.06 2.52 1.06 1 0 1.82-.34 2.44-1.01.62-.66.93-1.69.93-3.05v-9.45h1.84c1.04 0 1.92.14 2.6.41.67.27 1.34.79 2.01 1.53.68.77 1.47 1.91 2.34 3.39l2.46 4.1c.6.99 1.05 1.72 1.39 2.21.36.53.79.97 1.29 1.31.52.36 1.17.54 1.92.54.63 0 1.19-.13 1.67-.38.49-.25.88-.6 1.16-1.04.29-.44.43-.9.43-1.36 0-.43-.22-1.17-.68-2.24-.44-1.04-1.06-2.22-1.84-3.5zm-5.59-11.6c-.49.56-1.21.97-2.15 1.21-.97.25-2.2.37-3.65.37h-5.2v-7.73h5.37c2.06 0 3.45.15 4.13.43.7.29 1.25.74 1.64 1.33s.59 1.28.59 2.05c0 1-.24 1.78-.72 2.33z"/><path d="m21.21 86.87h-16.36v4.86h-4.86v30.95h26.09v-30.95h-4.86v-4.86zm3.08 6.64v27.39h-22.53v-27.39h4.86v-4.86h12.81v4.86z"/><path d="m149.08 91.73v-4.86h-16.36v4.86h-3.08v-29.16h-4.86v-4.86h-16.36v4.86h-7.94v-4.86h-16.36v4.86h-3.91c-.32-.05-3.66-.71-3.86-7.66-.15-5.46 3.38-9.01 9.68-9.77 8.74-1.04 20.57-7.1 25.89-17.95 1.99-4.06 2.2-6.75.64-8.23-3.12-2.97-11.24 1.36-12.15 1.87-3.97 2.19-6.54 3.6-14.45 5.61 3.45-4.23 10.52-14.5 7.01-24.12-.53-1.29-1.38-1.69-1.99-1.8-2.52-.44-5.85 2.97-10.3 7.84l-1.37 1.49c-1.8 1.94-4.65 4.66-7.68 7.54-4.55 4.34-9.26 8.82-11.85 12-3.92 4.81-7.82 6.85-8.23 7.06-11.93 2.24-18.76 7.89-20.27 16.81-1.52 8.93-2.09 17.35 3.88 18.43 1.56.28 3.64.21 5.83.13 4.62-.16 9.86-.35 10.61 2.81.55 2.32.7 9.17.43 19.79-.17 6.69-.45 12.4-.45 12.45s-.05 5.11-3.17 5.45c-5.2.58-7.87 3.11-8.16 7.72-.03.57-.07 1.15-.02 1.82l.05.83h113.66v-30.95h-4.86zm-87.94-61.23c2.52-3.09 7.4-7.74 11.7-11.84 3.04-2.9 5.92-5.64 7.75-7.62l1.38-1.5c2.67-2.93 6.66-7.3 8.5-7.3.06 0 .12 0 .18.01.11.02.39.07.65.69 4 10.96-7.77 23.61-8.34 24.21-.16.04-.32.08-.49.11-.83.19-1.68.39-2.6.59-.11.02-.23.05-.35.08-1.06.23-2.17.48-3.37.73-3.16.47-6.72 1.86-10.5 3.33-1.22.47-2.51.97-3.82 1.45-.4.15-.81.29-1.22.43-1.08.39-2.2.75-3.33 1.1-.28.09-.56.17-.85.26 1.42-1.16 3.05-2.72 4.7-4.73zm18.1 63.01v27.38h-37.25c0-.26.02-.51.04-.76.23-3.71 2.26-5.58 6.58-6.06 4.69-.52 4.75-6.94 4.75-7.17 0 0 .28-5.73.46-12.45.28-10.93.12-17.74-.48-20.25-1.09-4.57-7.1-4.36-12.4-4.17-2.1.07-4.08.15-5.45-.1-3.6-.65-4.31-5.4-2.45-16.39 1.38-8.14 7.77-13.32 18.98-15.39 5.21-.96 10.04-2.84 14.31-4.49 3.68-1.43 7.15-2.78 10.17-3.23.7-.15 1.37-.29 2.02-.43 1.94-.42 3.67-.81 5.23-1.18l.46-.09v-.03c9.9-2.37 12.63-3.87 17.08-6.32 3.84-2.11 8.65-3.49 10.07-2.13.88.84.52 3.03-1.02 6.16-5.79 11.8-18.56 16.26-24.51 16.97-7.22.86-11.43 5.19-11.25 11.58.19 6.77 3.2 8.67 4.68 9.19v29.37zm48.61 27.39h-46.84v-27.38h46.84zm-46.83-29.17v-27.38h4.86v-4.86h12.81v4.86h11.5v-4.86h12.81v4.86h4.86v27.38zm71.14 29.17h-22.53v-27.38s4.86 0 4.86 0v-4.86h12.81v4.86h4.86v27.39z"/><path d="m44.82 47.87c-1.63.5-2.63 2.16-2.63 3.86v3.57s.03.06.06.06h3.76s.01 0 .02 0c2.12 0 3.84-1.72 3.84-3.84 0-2.51-2.42-4.46-5.05-3.65zm2.78 3.46c-.43.43-1.12.43-1.54 0-.43-.43-.43-1.12 0-1.54.43-.43 1.12-.43 1.54 0s.43 1.12 0 1.54z"/></g></svg>