<?xml version="1.0" encoding="UTF-8"?>
<svg id="Calque_2" data-name="Calque 2" xmlns="http://www.w3.org/2000/svg" viewBox="0 0 108 108">
  <defs>
    <style>
      .cls-1 {
        fill: #c31718;
      }

      .cls-1, .cls-2 {
        stroke-width: 0px;
      }

      .cls-2 {
        fill: #fff;
      }
    </style>
  </defs>
  <rect class="cls-1" x="0" y="0" width="108" height="108" rx="54" ry="54"/>
  <g>
    <path class="cls-2" d="M20.81,37.18c-.29.29-.29.76,0,1.04s.76.29,1.04,0c.29-.29.29-.76,0-1.04s-.76-.29-1.04,0Z"/>
    <path class="cls-2" d="M90.62,65.61v-3.29h-11.09v3.29h-2.09v-19.77h-3.29v-3.29h-11.09v3.29h-5.38v-3.29h-11.09v3.29h-2.65c-.22-.03-2.47-.48-2.62-5.19-.1-3.7,2.3-6.11,6.57-6.62,5.91-.71,13.93-4.82,17.55-12.16,1.35-2.75,1.48-4.58.43-5.59-2.12-2.01-7.62.93-8.24,1.27-2.68,1.48-4.42,2.44-9.79,3.81,2.35-2.88,7.13-9.83,4.74-16.34-.35-.88-.93-1.16-1.35-1.22-1.7-.31-3.95,2.01-6.97,5.3l-.93,1.01c-1.21,1.32-3.15,3.17-5.19,5.11-3.1,2.94-6.28,5.98-8.03,8.13-2.68,3.28-5.34,4.66-5.59,4.79-8.08,1.51-12.7,5.35-13.72,11.39-1.03,6.06-1.43,11.76,2.64,12.49,1.04.19,2.46.14,3.95.1,3.12-.11,6.67-.24,7.18,1.9.37,1.59.48,6.22.29,13.42-.11,4.53-.31,8.4-.31,8.44s-.03,3.45-2.15,3.7c-3.52.39-5.34,2.11-5.51,5.22-.03.39-.05.79-.02,1.24l.03.56h77.02v-20.97h-3.29ZM20.79,40.96h-2.57s-.03-.02-.03-.03v-2.43c0-1.16.67-2.28,1.78-2.62,1.78-.55,3.42.77,3.42,2.47,0,1.45-1.17,2.6-2.6,2.6ZM76.23,85.37h-31.74v-18.56h31.74v18.56ZM76.23,65.61h-31.74v-18.56h3.29v-3.29h8.68v3.29h7.79v-3.29h8.68v3.29h3.29v18.56Z"/>
  </g>
</svg>