<?xml version="1.0" encoding="UTF-8"?>
<svg id="Calque_2" data-name="Calque 2" xmlns="http://www.w3.org/2000/svg" viewBox="0 0 153.94 123.61">
  <defs>
    <style>
      .cls-1 {
        fill: #fff;
        stroke-width: 0px;
      }
    </style>
  </defs>
  <path class="cls-1" d="M21.22,86.76H4.86v4.86H0v30.95h26.08v-30.95h-4.86v-4.86ZM24.31,93.4v27.39H1.78v-27.39h4.86v-4.86h12.81v4.86h4.86Z"/>
  <path class="cls-1" d="M46.07,49.69c-.43.43-.43,1.12,0,1.54s1.12.43,1.54,0c.43-.43.43-1.12,0-1.54s-1.12-.43-1.54,0Z"/>
  <path class="cls-1" d="M149.08,91.63v-4.86h-16.36v4.86h-3.08v-29.16h-4.86v-4.86h-16.36v4.86h-7.94v-4.86h-16.36v4.86h-3.91c-.33-.05-3.65-.71-3.86-7.66-.14-5.45,3.39-9.01,9.7-9.77,8.73-1.04,20.56-7.11,25.89-17.95,1.99-4.05,2.18-6.76.64-8.25-3.13-2.96-11.24,1.38-12.16,1.87-3.96,2.18-6.52,3.6-14.44,5.62,3.46-4.24,10.53-14.51,6.99-24.11-.52-1.3-1.38-1.71-1.99-1.8-2.51-.45-5.83,2.96-10.29,7.82l-1.38,1.49c-1.78,1.94-4.65,4.67-7.66,7.54-4.58,4.34-9.27,8.82-11.86,12-3.96,4.84-7.87,6.88-8.25,7.07-11.93,2.23-18.73,7.9-20.25,16.81-1.52,8.94-2.11,17.36,3.89,18.42,1.54.28,3.63.21,5.83.14,4.6-.17,9.84-.36,10.6,2.8.55,2.35.71,9.18.43,19.8-.17,6.69-.45,12.4-.45,12.45s-.05,5.1-3.18,5.45c-5.19.57-7.87,3.11-8.13,7.71-.05.57-.07,1.16-.02,1.83l.05.83h113.65v-30.94h-4.86ZM46.05,55.26h-3.79s-.05-.02-.05-.05v-3.58c0-1.71,1-3.37,2.63-3.86,2.63-.81,5.05,1.14,5.05,3.65,0,2.13-1.73,3.84-3.84,3.84ZM127.86,120.8h-46.83v-27.39h46.83v27.39ZM127.86,91.63h-46.83v-27.39h4.86v-4.86h12.8v4.86h11.5v-4.86h12.8v4.86h4.86v27.39Z"/>
</svg>