<?xml version="1.0" encoding="UTF-8"?>
<svg id="Layer_1" data-name="Layer 1" xmlns="http://www.w3.org/2000/svg" viewBox="0 0 896.36 187.17">
  <defs>
    <style>
      .cls-1 {
        fill: #e05c47;
      }

      .cls-1, .cls-2, .cls-3, .cls-4, .cls-5, .cls-6, .cls-7, .cls-8 {
        stroke-width: 0px;
      }

      .cls-2 {
        fill: #878e42;
      }

      .cls-3 {
        fill: #5f7333;
      }

      .cls-4 {
        fill: #5f6804;
      }

      .cls-5 {
        fill: #677219;
      }

      .cls-6 {
        fill: #495c14;
      }

      .cls-7 {
        fill: #d1301b;
      }

      .cls-8 {
        fill: #ed8880;
      }
    </style>
  </defs>
  <g>
    <path class="cls-2" d="M795.08,119.35c6.16-11.94,23.03-5.8,31.12.89-6.61,6.44-28.49,11.28-30.46.15"/>
    <path class="cls-5" d="M806.71,128.08c-2.07,0-4.03-.25-5.75-.8-3.51-1.13-5.67-3.45-6.25-6.71-.02-.08-.02-.17-.01-.25-.03-.01-.07-.03-.1-.05-.51-.26-.71-.89-.45-1.4,1.96-3.8,5.04-6.16,9.17-7,7.92-1.62,17.76,2.79,23.54,7.57.23.19.36.47.38.76.01.3-.1.58-.31.79-3.98,3.88-12.79,7.1-20.22,7.1ZM796.21,119.45c.29.14.51.41.57.75.44,2.49,2.07,4.2,4.83,5.09,6.53,2.1,17.86-.96,22.97-5.02-5.65-4.28-14.29-7.71-20.84-6.37-3.34.68-5.87,2.55-7.53,5.54Z"/>
  </g>
  <g>
    <path class="cls-3" d="M648.93,108.91c-3.46-12.98,13.17-19.76,23.66-20.24-.57,9.21-13.54,27.49-22.47,20.57"/>
    <path class="cls-6" d="M654.45,111.8c-1.79,0-3.47-.58-4.97-1.75-.07-.05-.13-.11-.18-.18-.03.01-.07.02-.1.03-.56.15-1.13-.18-1.28-.74-1.1-4.13-.4-7.95,2.09-11.34,4.78-6.52,15.03-9.86,22.53-10.21.3-.01.58.1.79.31.21.21.32.5.3.79-.44,7.09-7.46,18.69-15.01,22.1-1.43.65-2.83.97-4.16.97ZM650.12,108.19c.22,0,.45.07.64.22,2,1.55,4.35,1.72,7,.53,6.24-2.82,12.59-12.71,13.65-19.15-7.06.62-15.77,3.89-19.72,9.28-2.01,2.75-2.63,5.83-1.85,9.17.09-.03.19-.04.29-.04Z"/>
  </g>
  <g>
    <path class="cls-2" d="M640.85,147.73c9.69-9.3,23.67,1.98,29.16,10.93-8.34,3.95-30.61,1.44-28.87-9.73"/>
    <path class="cls-5" d="M660.06,161.47c-5.88,0-12.26-1.39-16.21-4.34-2.95-2.21-4.25-5.1-3.74-8.37.01-.08.04-.17.07-.24-.03-.02-.06-.05-.08-.08-.4-.41-.38-1.07.03-1.47,3.09-2.96,6.75-4.2,10.94-3.66,8.02,1.03,15.9,8.39,19.82,14.79.16.25.2.56.11.84-.08.28-.28.52-.55.64-2.6,1.23-6.38,1.88-10.39,1.88ZM641.88,148.19c.23.23.34.56.29.9-.39,2.5.59,4.64,2.92,6.38,5.49,4.1,17.21,4.88,23.36,2.69-3.96-5.88-11.02-11.93-17.65-12.78-3.39-.44-6.38.51-8.93,2.81Z"/>
  </g>
  <g>
    <path class="cls-3" d="M866.73,38.36c-11.84-20.71,15-30.33,27.14-34.61,7.27,33.76-14.49,41.12-26.86,34.87"/>
    <path class="cls-6" d="M875.59,41.67c-3.11,0-6.23-.7-9.04-2.12-.14-.07-.26-.17-.35-.29-.15-.09-.27-.21-.36-.37-3.2-5.6-3.91-10.9-2.11-15.74,4.23-11.36,21.51-17.45,29.81-20.38.28-.1.59-.07.86.07.26.15.45.4.51.69,4.59,21.29-2.57,30.53-7.25,34.14-3.42,2.64-7.72,4-12.06,4ZM867.57,37.73c6.03,3.01,13.57,2.33,18.81-1.71,7.21-5.57,9.58-16.51,6.72-30.89-8.35,2.96-23.72,8.76-27.43,18.74-1.56,4.2-.92,8.86,1.9,13.86Z"/>
  </g>
  <g>
    <path class="cls-3" d="M776.15,72.11c-13.63-4.98-8.42-18.56-1.33-27.52,6.48,8.89,12.53,18.8,1.57,27.07"/>
    <path class="cls-6" d="M776.15,73.15c-.12,0-.24-.02-.36-.06-4.7-1.72-7.64-4.54-8.72-8.39-1.56-5.53,1.03-13.29,6.93-20.76.2-.26.54-.39.84-.4.32,0,.63.16.82.43,5.18,7.1,13.82,18.97,1.49,28.41,0,.03-.02.06-.03.09-.15.42-.55.68-.98.68ZM774.8,46.34c-4.9,6.59-7.03,13.17-5.72,17.8.84,2.96,3.08,5.21,6.67,6.7,0,0,0,0,0,0,9.66-7.28,5.3-15.73-.96-24.5Z"/>
  </g>
  <g>
    <path class="cls-3" d="M700.65,157.66c12.83-6.79,19.42,6.18,21.34,17.44-10.94-1.14-22.36-3.28-21.16-16.96"/>
    <path class="cls-6" d="M721.99,176.14s-.07,0-.11,0c-8.74-.91-23.35-2.44-22.11-17.91-.02-.02-.03-.05-.04-.08-.27-.51-.07-1.14.43-1.41,4.42-2.34,8.49-2.63,12.07-.87,5.15,2.54,9.19,9.66,10.78,19.05.06.32-.04.65-.27.89-.2.21-.47.33-.76.33ZM701.86,158.21s0,0,0,.01c-1.06,12.04,8.13,14.46,18.85,15.68-1.61-8.05-5.08-14.04-9.4-16.17-2.76-1.36-5.94-1.2-9.45.47Z"/>
  </g>
  <g>
    <path class="cls-2" d="M798.27,56.58c-8.88-14.68,1.38-31.98,17.01-37,11.77,14.12.92,38.62-16.04,36.94"/>
    <path class="cls-5" d="M800.82,57.65c-.56,0-1.12-.03-1.69-.08-.12-.01-.23-.04-.33-.09-.49.3-1.13.14-1.43-.35-3.8-6.29-4.47-13.57-1.87-20.5,3.09-8.26,10.54-15.16,19.45-18.02.4-.13.84,0,1.12.33,6.96,8.36,6.04,19.72,2.04,27.27-3.81,7.19-10.33,11.46-17.29,11.46ZM799.24,55.49s.07,0,.11,0c6.82.67,13.16-3.17,16.93-10.28,3.59-6.77,4.5-16.85-1.36-24.41-8.02,2.79-14.67,9.07-17.46,16.54-2.3,6.15-1.8,12.59,1.41,18.21.12-.04.24-.07.37-.07Z"/>
  </g>
  <path class="cls-4" d="M589.06,130.44c-46.37,0-94.96-4.94-142.59-14.6-29.15-5.91-61.31-15.36-95.36-25.37C229,54.58,90.6,13.9,1.79,106.66c-.4.42-1.06.43-1.47.03-.42-.4-.43-1.06-.03-1.47,40.01-41.79,93.75-60.36,164.27-56.79,61.5,3.12,128.25,22.74,187.14,40.05,34.01,10,66.13,19.44,95.18,25.33,192.95,39.11,312.68-9.11,355.2-31.66,34.7-18.4,64.74-36.17,81.06-67.36.27-.51.9-.7,1.4-.44.51.27.71.9.44,1.4-16.6,31.72-46.92,49.67-81.93,68.24-48.56,25.75-107.42,40.97-174.95,45.25-12.78.81-25.83,1.21-39.05,1.21Z"/>
  <path class="cls-4" d="M766.47,100.47c-.29,0-.57-.12-.78-.35-.38-.43-.34-1.09.09-1.47,19.52-17.24,36.37-43.51,41.91-65.38.14-.56.71-.89,1.26-.75.56.14.89.71.75,1.26-5.64,22.24-22.74,48.93-42.55,66.43-.2.17-.44.26-.69.26Z"/>
  <path class="cls-4" d="M803.67,83.83c-.54,0-1-.42-1.04-.97-.04-.57.39-1.07.96-1.11,14.46-1.03,42.54-4.33,68.05-14.85.53-.22,1.14.03,1.36.57.22.53-.03,1.14-.57,1.36-25.79,10.63-54.11,13.96-68.7,15-.02,0-.05,0-.08,0Z"/>
  <g>
    <g>
      <path class="cls-1" d="M870.07,57.28c3.91-2.37,8.64.03,11.48,4.67,5.59,9.16-4.13,18.62-12.62,13.11,0,0-13.56-8.84,1.14-17.78Z"/>
      <path class="cls-7" d="M874.18,77.74c-2.02,0-3.97-.61-5.82-1.8-.26-.17-6.26-4.15-6.18-9.76.06-3.56,2.53-6.85,7.34-9.78,1.18-.72,2.46-1.08,3.8-1.08,3.37,0,6.77,2.28,9.1,6.1,2.23,3.65,2.41,7.7.49,11.12-1.8,3.21-5.15,5.21-8.75,5.21ZM873.33,57.4c-.96,0-1.87.26-2.72.78-4.16,2.53-6.3,5.23-6.34,8.03-.07,4.48,5.17,7.95,5.23,7.99,1.5.97,3.07,1.46,4.68,1.46,2.84,0,5.5-1.59,6.93-4.14,1.54-2.74,1.37-6.02-.45-9.01-1.92-3.15-4.73-5.1-7.33-5.1Z"/>
    </g>
    <path class="cls-8" d="M874.33,61.35c.68-.31,1.81.52,2.67,1.74,1.71,2.41.23,3.99-1.87,2.24,0,0-3.35-2.81-.8-3.98Z"/>
  </g>
  <path class="cls-4" d="M772.28,95.17c-.2,0-.41-.06-.59-.18-.47-.33-.59-.97-.27-1.45,3.7-5.37,3.61-28.83,3-33.86-.07-.57.34-1.09.91-1.16.59-.08,1.09.34,1.16.91.53,4.37.95,29.03-3.35,35.29-.2.29-.53.45-.86.45Z"/>
  <path class="cls-4" d="M850.7,92.84h-.03c-9.99-.29-14.9-3.4-22.33-8.1-1.44-.91-2.98-1.89-4.67-2.92-.49-.3-.65-.94-.35-1.43.3-.49.94-.65,1.43-.35,1.71,1.04,3.26,2.02,4.71,2.94,7.39,4.68,11.85,7.51,21.28,7.78.57.02,1.03.5,1.01,1.07-.02.56-.48,1.01-1.04,1.01Z"/>
  <g>
    <g>
      <path class="cls-1" d="M854.33,82.75c3.88-.11,6.36,3.65,6.5,8.27.27,9.11-10.87,12-14.82,4.36,0,0-6.29-12.22,8.31-12.63Z"/>
      <path class="cls-7" d="M852.91,100.81c-3.29,0-6.21-1.85-7.81-4.95-.12-.24-2.92-5.77-.45-9.95,1.57-2.65,4.82-4.07,9.66-4.2h0c4.37,0,7.4,3.82,7.57,9.28.11,3.57-1.35,5.84-2.59,7.12-1.66,1.71-3.99,2.7-6.38,2.7ZM854.5,83.79c-4.21.12-6.88,1.19-8.06,3.18-1.89,3.2.48,7.89.51,7.94,1.25,2.43,3.43,3.82,5.96,3.82,1.83,0,3.61-.75,4.88-2.07,1.38-1.42,2.07-3.36,2.01-5.61-.11-3.5-1.81-7.26-5.3-7.26Z"/>
    </g>
    <path class="cls-8" d="M855.77,87.54c.63.06,1.12,1.14,1.24,2.41.25,2.5-1.51,3.04-2.32.86,0,0-1.29-3.48,1.08-3.27Z"/>
  </g>
  <path class="cls-4" d="M797.68,121.36c-19.71,0-38.92-3.91-57.26-11.66-.53-.22-.78-.83-.55-1.36.23-.53.83-.78,1.37-.55,21.47,9.07,44.16,12.8,67.43,11.09.52-.04,1.07.39,1.12.96.04.57-.39,1.07-.96,1.11-3.73.28-7.44.41-11.13.41Z"/>
  <path class="cls-4" d="M676.02,123.7c-.48,0-.91-.33-1.01-.82-.12-.55.22-1.1.77-1.24,2.04-.66,40.5-21.3,54.49-33.66.43-.38,1.09-.34,1.47.09.38.43.34,1.09-.09,1.47-14.13,12.49-53.51,33.71-55.4,34.13-.08.02-.15.02-.23.02Z"/>
  <g>
    <g>
      <path class="cls-1" d="M727.45,76.74c3.92-2.35,8.65.08,11.45,4.74,5.53,9.19-4.24,18.59-12.7,13.03,0,0-13.51-8.92,1.25-17.77Z"/>
      <path class="cls-7" d="M731.5,97.22c-2.01,0-4.04-.63-5.86-1.83-.26-.17-6.24-4.19-6.12-9.8.08-3.56,2.57-6.84,7.4-9.74,1.17-.7,2.44-1.06,3.77-1.06,3.39,0,6.79,2.3,9.11,6.15,2.2,3.65,2.36,7.7.44,11.09-1.81,3.2-5.15,5.18-8.74,5.18ZM730.68,76.87c-.95,0-1.85.26-2.69.76-4.18,2.51-6.33,5.2-6.39,7.99-.1,4.48,5.13,7.98,5.18,8.02,1.51.99,3.09,1.49,4.72,1.49,2.83,0,5.49-1.58,6.92-4.13,1.54-2.72,1.39-6-.41-8.99-1.91-3.17-4.72-5.14-7.33-5.14Z"/>
    </g>
    <path class="cls-8" d="M731.69,80.83c.68-.31,1.81.53,2.67,1.76,1.69,2.42.21,3.99-1.88,2.22,0,0-3.34-2.83-.79-3.98Z"/>
  </g>
  <path class="cls-4" d="M686.05,118.19c-.27,0-.54-.11-.75-.32-.4-.41-.39-1.07.02-1.47,5.14-4.98,7.73-13.5,9.81-20.35.17-.55.74-.86,1.3-.69.55.17.86.75.69,1.3-2.15,7.08-4.83,15.89-10.35,21.24-.2.2-.46.29-.72.29Z"/>
  <g>
    <g>
      <path class="cls-1" d="M693.79,83.88c3.35-1.96,7.34.14,9.68,4.12,4.61,7.85-3.77,15.75-10.9,10.95,0,0-11.39-7.69,1.22-15.07Z"/>
      <path class="cls-7" d="M697.13,101.46c-1.77,0-3.54-.57-5.14-1.64-.22-.15-5.33-3.66-5.17-8.51.1-3.08,2.27-5.88,6.45-8.33,3.62-2.12,8.36-.17,11.11,4.49,1.85,3.15,1.96,6.63.29,9.54-1.57,2.74-4.46,4.44-7.54,4.44ZM696.49,84.18c-.76,0-1.49.2-2.17.6-3.52,2.06-5.35,4.28-5.42,6.6-.12,3.71,4.21,6.68,4.26,6.71,3.42,2.3,7.8,1.21,9.7-2.11,1.28-2.24,1.18-4.96-.28-7.45-1.58-2.69-3.91-4.35-6.09-4.35Z"/>
    </g>
    <path class="cls-8" d="M697.35,87.39c.58-.25,1.53.46,2.25,1.52,1.42,2.07.14,3.39-1.62,1.87,0,0-2.81-2.43-.63-3.39Z"/>
  </g>
  <path class="cls-4" d="M731.65,145.6s-.07,0-.11,0c-21.07-2.18-52.9-5.47-73.28-18.95-.48-.32-.61-.96-.29-1.44.32-.48.96-.61,1.44-.29,19.96,13.2,51.49,16.46,72.35,18.62.57.06.99.57.93,1.14-.06.54-.51.93-1.03.93Z"/>
  <path class="cls-4" d="M711.23,164c-.08,0-.17,0-.25-.03-9.56-2.37-15.2-11.72-20.66-20.76-.94-1.55-1.87-3.09-2.81-4.58-.31-.49-.16-1.13.32-1.44.49-.31,1.13-.16,1.44.32.95,1.5,1.89,3.05,2.83,4.62,5.24,8.68,10.65,17.65,19.38,19.81.56.14.9.7.76,1.26-.12.47-.54.79-1.01.79Z"/>
  <path class="cls-4" d="M779.96,148.46c-.22,0-.43-.07-.62-.21-11.56-8.61-18.46-19.88-19.97-32.58-.07-.57.34-1.09.91-1.16.53-.08,1.09.34,1.16.91,1.44,12.12,8.06,22.89,19.15,31.15.46.34.56,1,.21,1.46-.2.27-.52.42-.83.42Z"/>
  <g>
    <g>
      <path class="cls-1" d="M789.08,140.3c2.91,2.57,2.16,7.01-.89,10.48-6.01,6.84-16.13,1.35-13.81-6.92,0,0,3.74-13.22,14.7-3.56Z"/>
      <path class="cls-7" d="M781.78,154.92c-2.76,0-5.4-1.3-7.06-3.49-1.67-2.2-2.15-4.99-1.35-7.85.09-.32,2.29-7.86,8.39-7.86,2.45,0,5.15,1.28,8,3.79,3.17,2.79,2.83,7.82-.79,11.95-1.95,2.22-4.51,3.45-7.2,3.45ZM781.76,137.81c-4.52,0-6.37,6.27-6.39,6.34-.62,2.21-.26,4.35,1,6.03,1.26,1.67,3.28,2.66,5.4,2.66,1.47,0,3.64-.48,5.63-2.74,2.35-2.68,3.66-6.65.98-9.01-2.46-2.17-4.69-3.27-6.62-3.27Z"/>
    </g>
    <path class="cls-8" d="M786.85,144.78c.42.47.04,1.6-.74,2.61-1.52,2-3.18,1.2-2.28-.95,0,0,1.43-3.43,3.02-1.66Z"/>
  </g>
  <g>
    <g>
      <path class="cls-1" d="M735.76,137.15c3.74,1.03,5.03,5.35,3.81,9.8-2.39,8.79-13.89,8.31-15.45-.14,0,0-2.46-13.52,11.63-9.66Z"/>
      <path class="cls-7" d="M731.72,154.4c-3.61,0-7.68-2.29-8.62-7.39-.04-.23-.98-5.61,1.84-8.99,2.19-2.63,5.95-3.28,11.09-1.87,4.07,1.12,5.99,5.78,4.55,11.08-1.18,4.35-4.66,7.17-8.86,7.17ZM731.22,137.5c-2.08,0-3.65.62-4.67,1.84-2.2,2.62-1.4,7.24-1.4,7.29.72,3.92,3.82,5.68,6.57,5.68,2.57,0,5.72-1.48,6.85-5.63.94-3.44.37-7.58-3.08-8.53-1.59-.43-3.02-.65-4.26-.65Z"/>
    </g>
    <path class="cls-8" d="M735.74,142.15c.59.24.74,1.42.49,2.67-.49,2.46-2.33,2.47-2.47.15,0,0-.23-3.71,1.98-2.82Z"/>
  </g>
  <g>
    <path class="cls-3" d="M566.68,108.42c-9.28-11.16,2.05-20.28,12.68-24.47,1.13,10.94,1.39,22.56-12.25,24.2"/>
    <path class="cls-6" d="M566.68,109.46c-.3,0-.59-.13-.8-.38-3.2-3.85-4.32-7.76-3.33-11.63,1.43-5.57,7.57-10.98,16.43-14.47.3-.12.64-.09.92.08.28.17.46.46.49.78.9,8.74,2.41,23.36-12.99,25.31-.02.02-.04.04-.06.06-.19.16-.43.24-.67.24ZM578.47,85.45c-7.55,3.24-12.7,7.86-13.9,12.52-.76,2.98.05,6.06,2.41,9.15,0,0,0,0,.02,0,12-1.44,12.48-10.93,11.48-21.67Z"/>
  </g>
  <g>
    <path class="cls-3" d="M617.05,155.64c13.23-5.97,18.99,7.39,20.19,18.75-10.85-1.83-22.11-4.69-20.05-18.26"/>
    <path class="cls-6" d="M637.24,175.43c-.06,0-.12,0-.17-.01-8.67-1.47-23.15-3.91-20.93-19.27-.02-.03-.03-.05-.04-.08-.24-.52,0-1.14.52-1.38,4.56-2.06,8.63-2.09,12.1-.1,4.99,2.86,8.56,10.22,9.56,19.69.03.32-.09.64-.32.87-.19.18-.45.28-.71.28ZM618.23,156.27s0,.01,0,.02c-1.81,11.94,7.2,14.95,17.82,16.84-1.1-8.13-4.18-14.34-8.35-16.73-2.67-1.53-5.85-1.58-9.46-.12Z"/>
  </g>
  <g>
    <path class="cls-3" d="M464.17,157.75c14.51.58,13.69,15.1,9.68,25.8-8.89-6.49-17.69-14.07-9.77-25.3"/>
    <path class="cls-6" d="M473.85,184.59c-.22,0-.43-.07-.61-.2-7.1-5.18-18.97-13.84-10.11-26.6v-.08c.02-.57.45-1.03,1.08-1,5,.2,8.66,1.99,10.87,5.31,3.18,4.79,3.09,12.97-.25,21.89-.11.31-.36.54-.67.63-.1.03-.2.04-.3.04ZM464.94,158.84s0,0,0,.01c-6.96,9.88-.23,16.59,8.41,23.03,2.65-7.77,2.67-14.69,0-18.7-1.7-2.56-4.53-4.02-8.41-4.34Z"/>
  </g>
  <g>
    <path class="cls-2" d="M593.61,106.1c-.31-17.15,17.27-26.96,33.3-23.44,3.08,18.12-18.61,33.85-32.43,23.88"/>
    <path class="cls-5" d="M604.2,110.66c-3.73,0-7.3-1.09-10.33-3.27-.1-.07-.18-.15-.24-.25h-.02c-.57,0-1.03-.45-1.04-1.02-.13-7.35,2.95-13.98,8.68-18.67,6.82-5.59,16.74-7.81,25.88-5.8.41.09.73.42.8.84,1.82,10.73-4.68,20.08-11.93,24.6-3.81,2.38-7.89,3.57-11.8,3.57ZM594.64,105.52c.16.02.31.08.44.18,5.57,4.02,12.98,3.88,19.81-.38,6.5-4.05,12.36-12.3,11.09-21.79-8.33-1.61-17.25.47-23.41,5.52-5.08,4.16-7.88,9.99-7.93,16.45Z"/>
  </g>
  <path class="cls-4" d="M544.71,128.88c-.49,0-.92-.34-1.02-.84-.11-.56.25-1.11.82-1.22,24.97-4.98,52.69-19.5,68.96-36.13.4-.41,1.06-.42,1.47-.02.41.4.42,1.06.02,1.47-16.55,16.9-44.69,31.66-70.04,36.71-.07.01-.14.02-.21.02Z"/>
  <path class="cls-4" d="M653.96,151.48s-.1,0-.14,0c-26.64-3.63-50.35-13.26-65.54-20.7-.52-.25-.73-.88-.48-1.39.25-.52.88-.73,1.39-.48,15.06,7.37,38.54,16.92,64.9,20.5.57.08.97.6.89,1.17-.07.52-.52.9-1.03.9Z"/>
  <path class="cls-4" d="M550.91,127.79c-.39,0-.76-.22-.94-.6-.25-.52-.02-1.14.5-1.39,5.85-2.77,18.94-24.3,20.97-29,.23-.53.84-.77,1.37-.54.53.23.77.84.54,1.37-1.83,4.25-15.2,26.85-21.99,30.06-.14.07-.29.1-.44.1Z"/>
  <path class="cls-4" d="M623.46,161.45c-.19,0-.38-.05-.55-.16-8.49-5.27-11.17-10.42-15.23-18.22-.79-1.51-1.63-3.13-2.58-4.87-.27-.51-.09-1.14.42-1.41.5-.27,1.14-.09,1.41.42.96,1.76,1.8,3.39,2.59,4.91,4.04,7.76,6.48,12.45,14.48,17.42.49.3.64.94.34,1.43-.2.32-.54.49-.89.49Z"/>
  <path class="cls-4" d="M477.08,117.9c-13.22,0-24.25-.49-25.15-.77-.55-.17-.85-.76-.67-1.31.17-.54.74-.84,1.28-.68,2.1.46,45.73,1.93,64.03-1.72.55-.1,1.11.25,1.22.82.11.56-.25,1.11-.82,1.23-9.5,1.9-25.92,2.44-39.9,2.44Z"/>
  <g>
    <g>
      <path class="cls-1" d="M523.74,100.48c4.57-.06,7.44,4.41,7.52,9.85.16,10.73-13.01,13.94-17.53,4.89,0,0-7.2-14.5,10.01-14.74Z"/>
      <path class="cls-7" d="M521.9,121.54c-3.87,0-7.27-2.19-9.1-5.86-.14-.28-3.29-6.76-.36-11.55,1.86-3.04,5.65-4.62,11.29-4.7h0c4.99,0,8.48,4.47,8.58,10.88.05,3.25-1.01,6.07-3.07,8.16-1.92,1.95-4.59,3.07-7.33,3.07ZM523.83,101.52c-4.95.07-8.15,1.31-9.61,3.69-2.33,3.81.42,9.48.45,9.54,1.49,2.99,4.13,4.7,7.24,4.7,2.18,0,4.31-.89,5.85-2.45,1.66-1.69,2.51-3.99,2.47-6.67-.07-4.25-2.1-8.83-6.39-8.83Z"/>
    </g>
    <path class="cls-8" d="M525.34,106.14c.75.08,1.3,1.36,1.42,2.86.25,2.95-1.83,3.56-2.75.98,0,0-1.47-4.12,1.32-3.84Z"/>
  </g>
  <path class="cls-4" d="M463.7,117.46c-.47,0-.89-.32-1.01-.79-.14-.56.2-1.12.76-1.26,6.95-1.72,13.47-7.79,18.7-12.66.42-.39,1.08-.37,1.47.05.39.42.37,1.08-.05,1.47-5.41,5.04-12.15,11.31-19.62,13.16-.08.02-.17.03-.25.03Z"/>
  <g>
    <g>
      <path class="cls-1" d="M489.6,91.07c3.75,1.01,5.06,5.32,3.87,9.78-2.34,8.8-13.85,8.38-15.45-.06,0,0-2.53-13.51,11.58-9.72Z"/>
      <path class="cls-7" d="M485.6,108.33c-3.59,0-7.65-2.27-8.61-7.35-.04-.23-1.01-5.62,1.81-9.01,2.18-2.63,5.93-3.29,11.07-1.91,4.08,1.1,6.02,5.75,4.6,11.06-1.17,4.38-4.65,7.21-8.87,7.21ZM485.12,91.44c-2.1,0-3.69.63-4.71,1.86-2.2,2.65-1.37,7.25-1.36,7.3.79,4.17,4.03,5.65,6.56,5.65s5.74-1.48,6.86-5.67c.92-3.45.33-7.58-3.13-8.51-1.57-.42-2.98-.63-4.21-.63Z"/>
    </g>
    <path class="cls-8" d="M489.6,96.06c.59.24.75,1.41.5,2.66-.48,2.47-2.31,2.48-2.47.16,0,0-.25-3.71,1.97-2.83Z"/>
  </g>
  <path class="cls-4" d="M497.55,163.05c-.21,0-.43-.06-.61-.2-3.78-2.76-7.73-5.45-11.92-8.3-16.65-11.33-33.86-23.06-42.29-40.07-.25-.52-.04-1.14.47-1.4.52-.25,1.14-.04,1.4.47,8.19,16.53,25.17,28.09,41.6,39.28,4.2,2.86,8.16,5.56,11.97,8.33.46.34.57.99.23,1.45-.2.28-.52.43-.84.43Z"/>
  <path class="cls-4" d="M470.65,168.7c-.26,0-.52-.1-.72-.29-7.82-7.58-8.16-17.15-8.54-28.23l-.07-1.94c-.02-.57.43-1.06,1-1.08.67-.02,1.06.43,1.08,1l.07,1.94c.39,11.07.69,19.81,7.91,26.81.41.4.42,1.06.02,1.47-.2.21-.47.32-.75.32Z"/>
  <g>
    <g>
      <path class="cls-2" d="M563.25,159.36c11.33-7.23,22.82,6.56,26.46,16.41-8.94,2.24-30.3-4.57-26.41-15.18"/>
      <path class="cls-5" d="M585.64,177.25c-7.13,0-16.75-3.04-21.28-8.08-2.47-2.74-3.17-5.83-2.03-8.94.03-.08.07-.16.12-.22-.02-.03-.05-.06-.06-.09-.31-.49-.17-1.13.32-1.44,3.61-2.3,7.46-2.79,11.44-1.45,7.66,2.58,13.95,11.33,16.55,18.38.1.28.08.59-.06.85-.14.26-.38.45-.67.52-1.26.32-2.73.47-4.33.47ZM564.17,160.02c.18.27.23.61.11.93-.87,2.37-.32,4.67,1.62,6.83,4.58,5.09,15.92,8.14,22.39,7.21-2.73-6.54-8.48-13.85-14.81-15.98-3.23-1.09-6.36-.75-9.3,1.01Z"/>
    </g>
    <path class="cls-4" d="M575.71,170.28c-.15,0-.31-.03-.46-.1-21.52-10.47-37.3-23.38-51.19-41.85-.35-.46-.25-1.11.21-1.46.45-.35,1.11-.26,1.46.21,13.68,18.2,29.23,30.92,50.44,41.23.52.25.73.87.48,1.39-.18.37-.55.59-.94.59Z"/>
    <path class="cls-4" d="M537,179.6c-.4,0-.79-.24-.96-.63-5.66-13.25-5.97-26.46-.9-38.2.23-.53.84-.77,1.37-.54.53.23.77.84.54,1.37-4.84,11.21-4.53,23.85.9,36.56.23.53-.02,1.14-.55,1.37-.13.06-.27.08-.41.08Z"/>
    <g>
      <g>
        <path class="cls-1" d="M548.46,176.99c1.23,3.68-1.65,7.15-6.03,8.62-8.64,2.89-14.63-6.94-8.46-12.92,0,0,9.88-9.56,14.49,4.3Z"/>
        <path class="cls-7" d="M539.36,187.17c-3.69,0-6.96-2.18-8.33-5.56-1.35-3.33-.5-7.04,2.21-9.67.15-.14,3.67-3.5,7.73-3.5,2.62,0,6.21,1.43,8.47,8.23,1.34,4.01-1.48,8.19-6.69,9.93-1.14.38-2.28.58-3.4.58ZM540.97,170.52c-3.21,0-6.26,2.89-6.29,2.92-2.12,2.06-2.77,4.82-1.73,7.39,1.38,3.4,5.26,5.1,9.14,3.8,3.38-1.14,6.51-3.9,5.38-7.3-1.5-4.51-3.69-6.8-6.5-6.8Z"/>
      </g>
      <path class="cls-8" d="M544.29,179.75c.13.62-.77,1.4-1.95,1.88-2.32.96-3.35-.56-1.49-1.97,0,0,2.95-2.25,3.44.08Z"/>
    </g>
  </g>
  <g>
    <g>
      <path class="cls-1" d="M504.83,157.67c2.72,2.77,1.66,7.15-1.63,10.39-6.49,6.4-16.19.2-13.28-7.88,0,0,4.67-12.93,14.91-2.51Z"/>
      <path class="cls-7" d="M497.14,171.76c-2.89,0-5.6-1.4-7.25-3.75-1.66-2.36-2-5.27-.95-8.18.11-.3,2.69-7.26,8.42-7.26,2.6,0,5.36,1.47,8.21,4.37,2.96,3.01,2.27,8-1.64,11.86-1.96,1.93-4.31,2.95-6.79,2.95ZM497.37,154.65c-4.27,0-6.44,5.82-6.47,5.88-.81,2.25-.56,4.48.7,6.27,1.26,1.79,3.33,2.86,5.55,2.86,1.93,0,3.77-.81,5.33-2.35,2.54-2.51,4.13-6.37,1.62-8.92-2.44-2.49-4.71-3.75-6.72-3.75Z"/>
    </g>
    <path class="cls-8" d="M502.31,161.98c.39.5-.08,1.6-.92,2.55-1.66,1.88-3.26.97-2.21-1.11,0,0,1.67-3.32,3.13-1.44Z"/>
  </g>
  <path class="cls-4" d="M622.41,129.48c-.47,0-.9-.33-1.01-.81-.13-.56.22-1.12.79-1.24,11.88-2.69,27.29-18.15,35.56-26.46.4-.41,1.06-.41,1.47,0,.41.41.41,1.07,0,1.47-9.02,9.05-24.11,24.19-36.58,27.02-.08.02-.16.03-.23.03Z"/>
  <g>
    <path class="cls-4" d="M101.51,53.37c-.48,0-.91-.33-1.02-.82-.12-.55.22-1.1.77-1.24,2.05-.66,40.51-21.31,54.49-33.66.43-.38,1.09-.34,1.47.09.38.43.34,1.09-.09,1.47-14.12,12.48-53.51,33.71-55.39,34.13-.08.02-.15.02-.23.02Z"/>
    <g>
      <g>
        <path class="cls-1" d="M152.94,6.41c3.92-2.35,8.65.08,11.45,4.74,5.53,9.19-4.24,18.59-12.7,13.03,0,0-13.51-8.92,1.25-17.77Z"/>
        <path class="cls-7" d="M156.99,26.88c-2.04,0-4.01-.62-5.86-1.84-.26-.17-6.24-4.19-6.12-9.8.08-3.56,2.57-6.83,7.4-9.73,1.17-.7,2.44-1.06,3.77-1.06,3.39,0,6.79,2.3,9.11,6.15,2.2,3.65,2.36,7.7.44,11.09-1.81,3.2-5.15,5.18-8.74,5.18ZM156.17,6.54c-.95,0-1.85.26-2.7.76-4.18,2.51-6.33,5.19-6.39,7.99-.1,4.46,5.13,7.99,5.18,8.03,1.5.99,3.09,1.49,4.72,1.49,2.83,0,5.48-1.58,6.92-4.12,1.54-2.73,1.39-6-.41-9-1.91-3.17-4.72-5.14-7.33-5.14Z"/>
      </g>
      <path class="cls-8" d="M157.18,10.5c.68-.31,1.8.53,2.67,1.76,1.69,2.42.21,4-1.88,2.23,0,0-3.34-2.83-.78-3.98Z"/>
    </g>
    <path class="cls-4" d="M111.54,47.86c-.27,0-.54-.11-.75-.32-.4-.41-.39-1.07.02-1.47,5.15-4.99,7.73-13.51,9.81-20.35.17-.55.74-.86,1.3-.69.55.17.86.75.69,1.3-2.14,7.07-4.81,15.87-10.35,21.24-.2.2-.46.29-.72.29Z"/>
    <g>
      <g>
        <path class="cls-1" d="M119.29,13.55c3.35-1.96,7.34.14,9.68,4.12,4.62,7.85-3.77,15.74-10.9,10.95,0,0-11.39-7.69,1.22-15.07Z"/>
        <path class="cls-7" d="M122.62,31.12c-1.77,0-3.55-.57-5.14-1.64-.22-.15-5.33-3.66-5.17-8.51.1-3.08,2.27-5.88,6.45-8.33,3.63-2.12,8.36-.17,11.1,4.5,1.85,3.15,1.96,6.63.3,9.54-1.57,2.74-4.45,4.44-7.53,4.44ZM121.98,13.85c-.76,0-1.49.2-2.17.6-3.52,2.06-5.34,4.28-5.42,6.59-.12,3.7,4.21,6.69,4.26,6.72,3.42,2.3,7.8,1.21,9.7-2.11,1.28-2.24,1.18-4.96-.29-7.45-1.58-2.69-3.91-4.35-6.08-4.35Z"/>
      </g>
      <path class="cls-8" d="M122.84,17.06c.58-.25,1.53.46,2.24,1.52,1.42,2.07.14,3.39-1.62,1.87,0,0-2.81-2.43-.63-3.39Z"/>
    </g>
  </g>
  <g>
    <g>
      <path class="cls-3" d="M81.29,35.75c-7.68-11.03,5.64-23.07,15.34-27.1,2.6,8.85-3.35,30.46-14.11,27"/>
      <path class="cls-6" d="M84.8,37.06c-.85,0-1.72-.14-2.6-.42-.08-.03-.16-.06-.23-.1-.03.02-.06.05-.09.07-.47.33-1.12.21-1.45-.26-2.44-3.51-3.09-7.34-1.91-11.37,2.27-7.76,10.77-14.4,17.7-17.28.27-.11.58-.1.85.02.27.13.47.36.55.65,2,6.82-.64,20.11-6.58,25.9-1.91,1.86-4.03,2.81-6.26,2.81ZM82.52,34.61c.11,0,.21.02.32.05,2.41.78,4.68.14,6.76-1.89,4.9-4.78,7.5-16.24,6.31-22.66-6.42,3-13.5,9.03-15.38,15.45-.96,3.27-.49,6.38,1.38,9.25.18-.13.39-.2.61-.2Z"/>
    </g>
    <path class="cls-4" d="M63.03,64.19c-.34,0-.68-.17-.88-.48-.31-.48-.17-1.13.31-1.44,10.25-6.58,19.12-25.62,24.42-37,.24-.52.86-.75,1.38-.5.52.24.75.86.5,1.38-5.4,11.58-14.43,30.97-25.18,37.87-.17.11-.37.16-.56.16Z"/>
  </g>
  <g>
    <path class="cls-3" d="M213.34,41.11c4.24-13.88,18.08-9.41,27.41-2.82-8.53,6.95-18.1,13.54-26.95,3.03"/>
    <path class="cls-6" d="M224.04,47.84c-3.63,0-7.36-1.54-10.92-5.71-.03,0-.05-.01-.08-.02-.55-.17-.86-.75-.69-1.3,1.46-4.79,4.12-7.87,7.9-9.16,5.44-1.86,13.33.31,21.11,5.8.27.19.43.49.44.81.01.33-.13.64-.38.84-4.41,3.59-10.72,8.74-17.37,8.74ZM214.59,40.64s0,0,0,.01c7.78,9.24,15.99,4.44,24.41-2.29-6.84-4.53-13.54-6.31-18.09-4.75-2.91,1-5.04,3.36-6.33,7.03Z"/>
  </g>
  <g>
    <g>
      <path class="cls-3" d="M415.43,85.65c-8.34-11.88,3.69-20.04,14.63-23.35.24,11-.45,22.6-14.18,23.12"/>
      <path class="cls-6" d="M415.43,86.69c-.33,0-.65-.15-.85-.44-2.88-4.09-3.67-8.09-2.37-11.86,1.87-5.44,8.44-10.33,17.55-13.08.31-.09.65-.04.91.15.26.19.42.49.43.82.19,8.79.51,23.47-15,24.17-.02.02-.04.04-.07.05-.18.13-.39.19-.6.19ZM429.04,63.71c-7.78,2.61-13.3,6.8-14.87,11.35-1,2.91-.45,6.04,1.65,9.31h.01c12.08-.46,13.34-9.88,13.2-20.66Z"/>
    </g>
    <g>
      <path class="cls-2" d="M442.45,85.53c1.09-17.12,19.4-25.46,35.09-20.65,1.59,18.32-21.3,32.22-34.26,21.16"/>
      <path class="cls-5" d="M454.23,91c-4.32,0-8.38-1.4-11.62-4.16-.09-.08-.17-.17-.22-.27h0c-.57-.04-1.01-.53-.97-1.11.47-7.33,4.08-13.69,10.18-17.9,7.26-5.01,17.32-6.42,26.26-3.68.41.12.7.48.73.9.94,10.84-6.3,19.64-13.9,23.55-3.45,1.78-7.03,2.66-10.45,2.66ZM443.53,85.03c.15.04.3.11.43.22,5.22,4.46,12.61,4.92,19.77,1.24,6.81-3.51,13.32-11.26,12.83-20.82-8.17-2.29-17.22-.93-23.78,3.6-5.4,3.73-8.67,9.31-9.24,15.76Z"/>
    </g>
    <path class="cls-4" d="M396.3,103.66c-.52,0-.97-.39-1.03-.92-.07-.57.34-1.09.91-1.15,23.83-2.76,49-13.9,67.33-29.8.44-.38,1.1-.33,1.47.1.38.43.33,1.09-.1,1.47-18.64,16.16-44.22,27.49-68.45,30.3-.04,0-.08,0-.12,0Z"/>
    <path class="cls-4" d="M404.41,101.94c-.42,0-.82-.26-.97-.67-.2-.54.07-1.14.61-1.34,5.27-1.98,12.66-16.74,15.82-23.04.51-1.02.93-1.86,1.23-2.43.27-.51.9-.7,1.41-.43.51.27.7.9.43,1.41-.3.56-.71,1.38-1.21,2.39-3.55,7.07-10.92,21.79-16.95,24.06-.12.05-.25.07-.37.07Z"/>
  </g>
  <g>
    <path class="cls-4" d="M322.69,82.71c-.43,0-.82-.26-.98-.68-.2-.54.08-1.14.62-1.33,13.74-5.02,40.96-13.56,68.83-14.39.59,0,1.06.44,1.07,1.01.02.57-.44,1.06-1.01,1.07-27.58.82-54.56,9.29-68.18,14.26-.12.04-.24.06-.36.06Z"/>
    <g>
      <g>
        <path class="cls-1" d="M393.72,77.8c4.53.57,7.88-3.56,8.57-8.95,1.36-10.65-11.38-15.31-16.88-6.8,0,0-8.76,13.61,8.31,15.76Z"/>
        <path class="cls-7" d="M394.55,78.9h0c-.31,0-.63-.02-.96-.06-5.59-.7-9.19-2.7-10.7-5.92-2.38-5.09,1.48-11.17,1.64-11.43,2-3.1,5.13-4.88,8.58-4.88,2.94,0,5.74,1.27,7.69,3.49,2.05,2.33,2.94,5.49,2.51,8.89-.74,5.84-4.35,9.91-8.77,9.91ZM393.11,58.69c-2.77,0-5.2,1.39-6.83,3.92-.03.05-3.4,5.39-1.5,9.43,1.19,2.53,4.24,4.12,9.07,4.73,3.7.47,6.76-2.96,7.4-8.05.46-3.59-.84-5.92-2.01-7.25-1.56-1.77-3.79-2.78-6.13-2.78Z"/>
      </g>
      <path class="cls-8" d="M395.94,72.35c.75,0,1.44-1.21,1.73-2.68.57-2.9-1.42-3.74-2.62-1.28,0,0-1.91,3.93.89,3.96Z"/>
    </g>
    <path class="cls-4" d="M342.19,76.01c-.2,0-.41-.06-.59-.18-.47-.33-.59-.97-.27-1.45,1.12-1.63,2.13-3.15,3.07-4.56,4.86-7.34,8.07-12.18,17.08-16.53.52-.25,1.14-.03,1.39.48.25.52.03,1.14-.48,1.39-8.49,4.1-11.41,8.51-16.24,15.8-.94,1.43-1.96,2.95-3.09,4.6-.2.29-.53.45-.86.45Z"/>
    <g>
      <g>
        <path class="cls-1" d="M368.95,60.99c3.59-1.49,4.31-5.93,2.56-10.2-3.47-8.42-14.82-6.51-15.31,2.07,0,0-.74,13.72,12.75,8.13Z"/>
        <path class="cls-7" d="M363.25,63.37h0c-2.24,0-4.07-.74-5.45-2.2-2.89-3.05-2.65-8.16-2.64-8.37.31-5.57,4.63-8.48,8.74-8.48,3.8,0,7,2.27,8.57,6.07,2.09,5.09.78,9.95-3.12,11.56-2.27.94-4.32,1.42-6.1,1.42ZM363.9,46.4c-3.13,0-6.42,2.24-6.66,6.51,0,.04-.2,4.44,2.07,6.83.98,1.04,2.27,1.54,3.94,1.54h0c1.5,0,3.28-.42,5.3-1.26,3.31-1.37,3.35-5.55,1.99-8.85-1.23-2.99-3.72-4.78-6.64-4.78Z"/>
      </g>
      <path class="cls-8" d="M368.29,56.03c.56-.31.56-1.5.15-2.71-.8-2.38-2.62-2.16-2.46.16,0,0,.24,3.7,2.32,2.55Z"/>
    </g>
  </g>
  <g>
    <path class="cls-4" d="M27.76,83.1c-.11,0-.21-.02-.32-.05-.55-.18-.85-.77-.67-1.31,4.52-13.91,14.57-40.61,31.1-63.07.34-.46.99-.56,1.46-.22.46.34.56.99.22,1.46-16.35,22.23-26.31,48.69-30.79,62.48-.14.44-.55.72-.99.72Z"/>
    <g>
      <g>
        <path class="cls-1" d="M68.5,23.75c3.25-3.22,2.06-8.4-1.77-12.26-7.55-7.63-19.07-.47-15.76,9.09,0,0,5.32,15.29,17.53,3.17Z"/>
        <path class="cls-7" d="M59.73,29.46h0c-6.7,0-9.62-8.19-9.74-8.54-1.16-3.36-.74-6.7,1.18-9.4,1.91-2.68,5.03-4.29,8.35-4.29,2.93,0,5.68,1.22,7.96,3.52,4.48,4.53,5.22,10.3,1.76,13.73-3.33,3.3-6.52,4.97-9.5,4.97ZM59.51,9.32c-2.65,0-5.13,1.27-6.65,3.41-1.52,2.14-1.84,4.8-.91,7.51.02.07,2.56,7.14,7.78,7.14,2.41,0,5.11-1.47,8.04-4.37,3.09-3.06,1.24-7.74-1.78-10.79-1.88-1.9-4.12-2.9-6.48-2.9Z"/>
      </g>
      <path class="cls-8" d="M65.58,18.64c.46-.59-.07-1.88-1.05-3.02-1.93-2.24-3.82-1.19-2.62,1.28,0,0,1.92,3.93,3.67,1.74Z"/>
    </g>
    <path class="cls-4" d="M34.5,63.62c-.44,0-.86-.29-.99-.73-.59-1.9-1.17-3.63-1.71-5.25-2.78-8.34-4.61-13.85-2.49-23.62.12-.56.68-.92,1.24-.8s.92.68.8,1.24c-2,9.21-.34,14.22,2.43,22.52.54,1.63,1.12,3.37,1.72,5.28.17.55-.13,1.13-.68,1.3-.1.03-.21.05-.31.05Z"/>
    <g>
      <g>
        <path class="cls-1" d="M39.99,32.9c1.04-3.74-2.01-7.05-6.46-8.3-8.77-2.46-14.26,7.66-7.8,13.33,0,0,10.35,9.04,14.26-5.03Z"/>
        <path class="cls-7" d="M32.56,41.83h0c-3.91,0-7.37-2.99-7.52-3.12-2.92-2.56-3.92-6.3-2.62-9.76,1.65-4.39,6.47-6.74,11.39-5.36,5.29,1.49,8.31,5.52,7.18,9.58-1.99,7.15-5.68,8.65-8.43,8.65ZM30.88,25.26c-2.94,0-5.49,1.74-6.51,4.43-1,2.67-.24,5.46,2.04,7.46.03.02,3.03,2.6,6.15,2.6,2.95,0,5.11-2.4,6.43-7.13.96-3.45-2.3-6.06-5.74-7.02-.8-.22-1.6-.34-2.37-.34Z"/>
      </g>
      <path class="cls-8" d="M35.68,30.35c.1-.63-.84-1.36-2.04-1.78-2.37-.84-3.32.73-1.4,2.04,0,0,3.06,2.09,3.43-.26Z"/>
    </g>
  </g>
  <g>
    <path class="cls-4" d="M273.79,119.62c-.3,0-.6-.13-.8-.38-12.07-14.65-33.43-56.38-33.82-58.44-.1-.57.27-1.11.83-1.22.56-.09,1.09.25,1.21.8.68,2.3,21.89,43.57,33.39,57.53.37.44.3,1.1-.14,1.47-.19.16-.43.24-.66.24Z"/>
    <g>
      <g>
        <path class="cls-1" d="M285.93,115.5c2.21,4-.37,8.64-5.13,11.28-9.38,5.21-18.43-4.88-12.59-13.14,0,0,9.38-13.19,17.72,1.86Z"/>
        <path class="cls-7" d="M275.58,129.25c-3.87,0-7.37-2.13-9.14-5.55-1.75-3.38-1.4-7.36.93-10.66.17-.24,4.18-5.79,9.57-5.79,3.73,0,7.06,2.61,9.91,7.74,2.36,4.26.03,9.6-5.53,12.7-1.87,1.04-3.79,1.56-5.73,1.56ZM276.94,109.33c-4.31,0-7.84,4.86-7.87,4.91-1.9,2.69-2.18,5.78-.78,8.5,2.14,4.13,7.44,5.68,12.01,3.13,3.75-2.08,6.83-6.06,4.72-9.87-2.45-4.43-5.17-6.67-8.09-6.67Z"/>
      </g>
      <path class="cls-8" d="M281.7,119.59c.28.69-.59,1.78-1.85,2.6-2.48,1.61-4,.07-2.16-1.96,0,0,2.94-3.24,4.01-.65Z"/>
    </g>
    <path class="cls-4" d="M267.4,84.56c-.11,0-.22-.02-.34-.06-4.62-1.58-15.98-5.94-21.84-12.42-.39-.43-.35-1.08.07-1.47.43-.39,1.08-.35,1.47.07,5.53,6.12,16.51,10.32,20.97,11.85.54.18.83.78.65,1.32-.15.43-.55.7-.98.7Z"/>
    <g>
      <g>
        <path class="cls-1" d="M279.96,81.62c1.84,3.41-.39,7.33-4.45,9.53-8.01,4.34-15.61-4.31-10.57-11.27,0,0,8.08-11.12,15.02,1.74Z"/>
        <path class="cls-7" d="M271.14,93.35c-3.36,0-6.4-1.86-7.92-4.84-1.51-2.95-1.18-6.4.88-9.24.15-.2,3.61-4.89,8.23-4.89,3.26,0,6.13,2.27,8.55,6.75,2.01,3.72-.04,8.32-4.87,10.94-1.59.86-3.22,1.29-4.86,1.29ZM272.32,76.45c-3.57,0-6.52,3.99-6.54,4.03-1.61,2.23-1.87,4.81-.71,7.08,1.75,3.43,6.12,4.74,9.94,2.67,3.14-1.7,5.73-4.97,4.03-8.12-2.03-3.75-4.29-5.66-6.72-5.66Z"/>
      </g>
      <path class="cls-8" d="M276.33,85.05c.24.59-.51,1.52-1.59,2.19-2.12,1.35-3.4.02-1.82-1.68,0,0,2.53-2.72,3.41-.51Z"/>
    </g>
  </g>
  <path class="cls-4" d="M161.24,49.29c-.48,0-.92-.34-1.02-.83-.12-.56.25-1.11.81-1.23,23.44-4.83,47.99-24.87,64.24-38.14.45-.37,1.1-.3,1.47.15.36.45.3,1.1-.15,1.47-16.4,13.39-41.19,33.63-65.13,38.56-.07.01-.14.02-.21.02Z"/>
  <path class="cls-4" d="M213.49,41.18c-5.68,0-11.73-1.48-17.67-2.94-1.76-.43-3.51-.86-5.24-1.24-.56-.13-.91-.68-.79-1.24.13-.56.68-.91,1.24-.79,1.74.39,3.5.82,5.28,1.25,9.84,2.41,20.02,4.9,27.7.25.49-.29,1.13-.14,1.43.35.3.49.14,1.13-.35,1.43-3.55,2.15-7.48,2.93-11.61,2.93Z"/>
  <g>
    <g>
      <path class="cls-2" d="M420.89,131.52c11.01-7.7,23.08,5.59,27.13,15.28-8.84,2.62-30.47-3.28-27.03-14.05"/>
      <path class="cls-5" d="M442.89,148.47c-6.99,0-15.99-2.6-20.48-7.2-2.58-2.63-3.41-5.69-2.4-8.85.03-.08.06-.16.1-.23-.02-.03-.05-.06-.07-.09-.33-.47-.21-1.12.26-1.45,3.51-2.45,7.33-3.1,11.37-1.93,7.77,2.25,14.42,10.74,17.32,17.66.11.27.11.58-.02.85-.13.27-.36.47-.64.55-1.53.45-3.4.67-5.43.67ZM421.84,132.14c.19.26.26.6.15.93-.77,2.4-.13,4.68,1.91,6.76,4.79,4.9,16.26,7.47,22.67,6.26-3.01-6.42-9.06-13.48-15.48-15.34-3.27-.95-6.38-.48-9.25,1.4Z"/>
    </g>
    <path class="cls-4" d="M432.72,139.41c-.14,0-.28-.03-.41-.09-21.88-9.52-38.94-22.35-53.7-40.35-.36-.44-.3-1.1.15-1.47.45-.36,1.1-.3,1.47.15,14.54,17.74,31.36,30.38,52.92,39.77.53.23.77.84.54,1.37-.17.39-.55.63-.96.63Z"/>
    <path class="cls-4" d="M394.44,150.36c-.39,0-.76-.22-.94-.59-6.22-13-7.09-26.19-2.51-38.13.21-.54.8-.8,1.34-.6.54.21.81.81.6,1.34-4.37,11.4-3.52,24.01,2.44,36.49.25.52.03,1.14-.49,1.39-.14.07-.3.1-.45.1Z"/>
    <g>
      <g>
        <path class="cls-1" d="M405.82,147.26c1.38,3.63-1.35,7.21-5.66,8.87-8.51,3.26-14.91-6.31-9-12.55,0,0,9.46-9.96,14.67,3.69Z"/>
        <path class="cls-7" d="M396.76,157.83c-3.59,0-6.82-2.11-8.23-5.38-1.41-3.27-.71-6.86,1.87-9.58.15-.16,3.69-3.83,7.89-3.83,3.66,0,6.52,2.65,8.51,7.87,1.5,3.95-1.13,8.24-6.27,10.21-1.26.48-2.53.73-3.77.73ZM398.29,141.11c-3.31,0-6.35,3.15-6.38,3.18-1.99,2.1-2.54,4.84-1.47,7.33,1.46,3.4,5.47,5.02,9.35,3.54,3.33-1.28,6.34-4.17,5.06-7.52-1.65-4.33-3.86-6.53-6.56-6.53Z"/>
      </g>
      <path class="cls-8" d="M401.77,150.19c.15.62-.71,1.43-1.87,1.96-2.27,1.06-3.37-.42-1.58-1.9,0,0,2.86-2.37,3.44-.06Z"/>
    </g>
  </g>
  <g>
    <g>
      <path class="cls-2" d="M146.73,94.58c-8.17,10.67,4.59,23.3,14.09,27.77,3-8.72-1.96-30.58-12.86-27.61"/>
      <path class="cls-5" d="M160.81,123.39c-.15,0-.3-.03-.44-.1-6.79-3.2-14.98-10.21-16.89-18.07-1-4.09-.18-7.88,2.42-11.28.35-.46,1-.54,1.46-.19.03.02.06.05.09.07.07-.04.15-.07.23-.1,3.2-.86,6.21.1,8.73,2.79,5.67,6.06,7.7,19.45,5.39,26.17-.1.28-.31.5-.58.62-.13.05-.27.08-.41.08ZM147.3,95.55c-2,2.78-2.61,5.87-1.8,9.18,1.58,6.49,8.38,12.85,14.66,16.13,1.48-6.35-.58-17.92-5.27-22.92-1.99-2.12-4.23-2.86-6.67-2.2-.33.09-.67,0-.92-.19Z"/>
    </g>
    <path class="cls-4" d="M153.06,107.74c-.42,0-.81-.25-.97-.67-8.38-21.78-21.43-40.71-38.79-56.26-.43-.38-.47-1.04-.08-1.47.39-.43,1.04-.46,1.47-.08,17.61,15.77,30.85,34.97,39.35,57.06.21.54-.06,1.14-.6,1.35-.12.05-.25.07-.37.07Z"/>
    <path class="cls-4" d="M165.67,69.97c-.16,0-.33-.04-.49-.12-12.2-6.5-24.77-7.9-36.35-4.03-.55.18-1.14-.11-1.32-.66-.18-.55.11-1.14.66-1.32,12.13-4.05,25.27-2.61,37.99,4.17.51.27.7.9.43,1.41-.19.35-.55.55-.92.55Z"/>
    <g>
      <g>
        <path class="cls-1" d="M163.11,80.21c3.57,1.54,7.27-1.03,9.11-5.27,3.62-8.36-5.66-15.17-12.15-9.54,0,0-10.36,9.02,3.05,14.81Z"/>
        <path class="cls-7" d="M165.24,81.7h0c-.86,0-1.72-.18-2.54-.53-4.45-1.92-6.94-4.44-7.41-7.48-.75-4.79,3.9-8.9,4.1-9.07,1.75-1.52,3.8-2.32,5.93-2.32,2.89,0,5.69,1.53,7.31,4,1.72,2.61,1.92,5.92.56,9.06-1.7,3.92-4.74,6.35-7.93,6.35ZM165.31,64.38c-1.62,0-3.2.62-4.56,1.81-.04.03-3.98,3.53-3.4,7.19.36,2.29,2.44,4.26,6.18,5.88,2.8,1.21,6.06-.86,7.74-4.73,1.09-2.52.96-5.04-.39-7.09-1.24-1.89-3.37-3.06-5.56-3.06Z"/>
      </g>
      <path class="cls-8" d="M166.21,76.29c.61.18,1.47-.64,2.05-1.78,1.16-2.23-.27-3.39-1.83-1.66,0,0-2.49,2.75-.22,3.44Z"/>
    </g>
  </g>
  <g>
    <g>
      <path class="cls-1" d="M223.58,1.76c3.37-1.93,7.34.21,9.64,4.21,4.55,7.9-3.91,15.71-10.99,10.85,0,0-11.32-7.8,1.36-15.06Z"/>
      <path class="cls-7" d="M226.83,19.37c-1.79,0-3.59-.58-5.2-1.69-.22-.15-5.3-3.71-5.1-8.56.13-3.08,2.32-5.86,6.52-8.27.99-.57,2.06-.86,3.17-.86,2.93,0,5.95,2.09,7.89,5.45,1.82,3.15,1.9,6.62.23,9.5-1.57,2.72-4.45,4.41-7.52,4.41ZM226.23,2.08c-.74,0-1.46.2-2.13.58-3.54,2.03-5.38,4.23-5.48,6.54-.16,3.7,4.15,6.73,4.2,6.76,1.27.87,2.63,1.32,4.02,1.32,2.32,0,4.51-1.29,5.72-3.37,1.29-2.23,1.2-4.93-.23-7.42-1.57-2.72-3.9-4.41-6.09-4.41Z"/>
    </g>
    <path class="cls-8" d="M227.11,5.3c.58-.25,1.52.48,2.23,1.54,1.4,2.08.11,3.4-1.63,1.86,0,0-2.79-2.46-.6-3.4Z"/>
  </g>
  <g>
    <path class="cls-3" d="M266.39,48.63c-4.99-13.63,8.75-18.41,20.17-18.78-2.61,10.69-6.28,21.71-19.67,18.67"/>
    <path class="cls-6" d="M271.1,50.07c-1.31,0-2.73-.16-4.27-.5-.03.01-.05.02-.08.03-.54.2-1.14-.08-1.34-.62-1.72-4.7-1.46-8.76.78-12.07,3.22-4.76,10.82-7.79,20.34-8.1.31.01.64.13.84.39s.28.59.2.9c-1.88,7.67-4.89,19.97-16.47,19.97ZM267.1,47.5s.01,0,.02,0c11.78,2.68,15.43-6.1,18.09-16.55-8.19.51-14.6,3.13-17.3,7.12-1.72,2.55-1.99,5.72-.81,9.42Z"/>
  </g>
  <g>
    <path class="cls-2" d="M292.53,55.5c5.48-16.26,25.32-19.59,39.24-10.88-3.2,18.1-28.91,25.62-38.57,11.59"/>
    <path class="cls-5" d="M308.03,64.54c-6.51,0-12.26-2.76-15.69-7.73-.07-.1-.12-.2-.15-.31-.54-.18-.83-.77-.65-1.32,2.35-6.96,7.48-12.17,14.45-14.66,8.3-2.97,18.39-1.73,26.32,3.23.36.22.55.65.47,1.06-1.89,10.71-11.16,17.34-19.51,19.16-1.78.39-3.54.58-5.25.58ZM293.7,55.3c.14.08.26.18.35.32,3.9,5.66,10.91,8.02,18.78,6.3,7.49-1.63,15.77-7.43,17.77-16.79-7.3-4.32-16.4-5.35-23.91-2.67-6.18,2.21-10.78,6.76-12.99,12.84Z"/>
  </g>
  <path class="cls-4" d="M257.84,62.49c-6,0-11.88-.4-17.47-1.22-.57-.08-.96-.61-.88-1.18.08-.57.6-.97,1.18-.88,24.28,3.57,54.01-.96,75.75-11.55.52-.25,1.14-.04,1.39.48.25.52.04,1.14-.48,1.39-17.08,8.32-39.02,12.96-59.49,12.96Z"/>
  <path class="cls-4" d="M246.13,62.36c-.53,0-.98-.4-1.04-.94-.06-.57.36-1.08.93-1.14,6.33-.63,24.88-16.85,28.73-20.99.39-.42,1.05-.44,1.47-.05.42.39.44,1.05.05,1.47-2.62,2.82-22.42,20.89-30.05,21.64-.03,0-.07,0-.1,0Z"/>
  <g>
    <g>
      <path class="cls-2" d="M350.95,111.65c12.26-5.5,21.63,9.82,23.79,20.09-9.18.92-29.31-8.93-23.92-18.87"/>
      <path class="cls-5" d="M373.45,132.84c-7.23,0-18.54-4.85-22.84-11.32-2.04-3.07-2.28-6.23-.7-9.14.04-.08.09-.14.15-.2-.02-.03-.04-.07-.05-.1-.24-.52,0-1.14.52-1.38,3.9-1.75,7.78-1.67,11.53.23,7.21,3.67,12.15,13.25,13.7,20.59.06.29,0,.59-.18.83-.17.24-.44.39-.74.42-.44.04-.91.07-1.39.07ZM351.76,112.43c.14.29.14.64-.03.94-1.21,2.22-1,4.57.61,6.99,3.79,5.7,14.57,10.38,21.1,10.39-1.75-6.87-6.37-14.94-12.33-17.97-3.04-1.54-6.18-1.66-9.35-.36Z"/>
    </g>
    <g>
      <path class="cls-3" d="M325.88,111.1c14.47-1.17,15.4,13.34,12.71,24.45-9.6-5.37-19.25-11.85-12.74-23.94"/>
      <path class="cls-6" d="M338.59,136.59c-.18,0-.35-.04-.51-.13-7.67-4.29-20.48-11.47-13.23-25.18,0-.03,0-.06-.01-.09-.05-.57.38-1.08.95-1.12,4.98-.4,8.83.93,11.43,3.97,3.73,4.37,4.62,12.51,2.38,21.76-.08.32-.3.58-.59.71-.13.06-.28.09-.42.09ZM326.78,112.09s0,0,0,.01c-5.73,10.64,1.76,16.5,11.12,21.85,1.7-8.03.88-14.91-2.25-18.57-2-2.34-4.96-3.44-8.86-3.3Z"/>
    </g>
    <path class="cls-4" d="M362.37,119.65c-.16,0-.33-.04-.48-.12-23.86-12.37-42.95-29.41-54.77-41.53-.4-.41-.39-1.07.02-1.47.41-.4,1.07-.39,1.47.02,11.71,12.01,30.62,28.89,54.23,41.13.51.26.71.89.45,1.4-.19.36-.55.56-.93.56Z"/>
    <path class="cls-4" d="M330.31,118.79c-.31,0-.61-.13-.82-.39-6.23-7.82-7.02-13.58-8.22-22.29-.23-1.69-.48-3.49-.79-5.45-.09-.57.3-1.1.87-1.19.57-.09,1.1.3,1.19.87.31,1.98.56,3.79.79,5.49,1.19,8.67,1.91,13.9,7.78,21.28.36.45.28,1.1-.17,1.46-.19.15-.42.23-.65.23Z"/>
  </g>
  <g>
    <g>
      <path class="cls-2" d="M100.52,80.58c7.65-11.05,23.58-2.78,30.75,4.9-7.38,5.53-29.71,7.51-30.22-3.78"/>
      <path class="cls-5" d="M114.74,90.98c-3.47,0-6.8-.54-9.41-1.78-3.33-1.57-5.17-4.15-5.32-7.46,0-.09,0-.17.02-.25-.03-.02-.06-.04-.1-.06-.47-.33-.59-.98-.26-1.45,2.43-3.52,5.8-5.45,9.99-5.76,8.06-.59,17.25,5.05,22.38,10.55.2.22.3.51.28.8-.03.29-.18.56-.41.74-3.71,2.78-10.68,4.66-17.16,4.67ZM101.62,80.83c.27.18.45.48.46.82.11,2.52,1.5,4.43,4.13,5.67,6.19,2.93,17.84,1.35,23.43-2.01-5.05-4.97-13.18-9.52-19.85-9.01-3.4.25-6.15,1.77-8.18,4.53Z"/>
    </g>
    <g>
      <path class="cls-3" d="M78.77,93.07c11.78-8.48,20.08,3.46,23.52,14.36-10.99.36-22.6-.19-23.28-13.91"/>
      <path class="cls-6" d="M98.15,108.55c-8.61,0-19.42-1.58-20.17-14.81-.02-.02-.04-.04-.05-.07-.34-.47-.23-1.12.24-1.45,4.06-2.93,8.04-3.77,11.84-2.51,5.46,1.81,10.42,8.32,13.29,17.4.1.31.04.65-.14.91-.19.27-.49.43-.82.44-1.28.04-2.7.09-4.17.09ZM80.05,93.45s0,0,0,.02c.6,12.07,10.02,13.22,20.81,12.96-2.7-7.75-6.95-13.22-11.52-14.74-2.92-.97-6.04-.38-9.29,1.76Z"/>
    </g>
    <path class="cls-4" d="M102.27,82.04c-22.33,0-42.69-3.97-56.66-7.61-.56-.14-.89-.71-.75-1.27s.71-.89,1.27-.75c16.23,4.23,41.14,8.91,67.69,7.17.58-.02,1.07.4,1.11.97.04.57-.4,1.07-.97,1.11-3.94.26-7.84.37-11.69.37Z"/>
    <path class="cls-4" d="M86,97.51c-.12,0-.24-.02-.36-.06-9.37-3.47-13.03-7.99-18.56-14.83-1.07-1.32-2.22-2.74-3.49-4.26-.37-.44-.31-1.1.13-1.47.44-.37,1.1-.31,1.47.13,1.29,1.53,2.44,2.96,3.52,4.29,5.5,6.8,8.83,10.91,17.67,14.19.54.2.81.8.61,1.34-.16.42-.55.68-.98.68Z"/>
  </g>
  <g>
    <g>
      <path class="cls-3" d="M204.77,74.43c12.54-4.84,21.06,10.97,22.67,21.34-9.22.42-28.79-10.5-22.87-20.13"/>
      <path class="cls-6" d="M226.9,96.82c-7.17,0-18.91-5.61-23.01-12.56-1.87-3.18-1.94-6.34-.21-9.16.04-.07.1-.14.16-.2-.02-.03-.03-.07-.05-.1-.21-.54.06-1.14.6-1.35,3.99-1.54,7.86-1.25,11.5.85,7,4.05,11.43,13.88,12.58,21.3.05.29-.04.59-.22.82-.19.23-.46.37-.76.38-.19,0-.39.01-.59.01ZM205.54,75.25c.12.3.1.64-.08.94-1.32,2.15-1.24,4.51.23,7.01,3.48,5.9,13.99,11.15,20.51,11.52-1.38-6.95-5.56-15.27-11.35-18.61-2.95-1.7-6.08-1.99-9.31-.86Z"/>
    </g>
    <path class="cls-4" d="M212.97,84.2c-.23,0-.46-.07-.65-.23-9.97-7.99-26.65-21.38-30.8-33.46-.19-.54.1-1.14.65-1.32.55-.19,1.14.1,1.32.65,3.95,11.51,20.34,24.66,30.13,32.51.45.36.52,1.02.16,1.46-.21.26-.51.39-.81.39Z"/>
  </g>
</svg>