<svg xmlns="http://www.w3.org/2000/svg" id="Layer_2" data-name="Layer 2" viewBox="0 0 428.08 481.55"><defs><style>      .cls-1 {        fill: #fff;      }      .cls-2 {        fill: #f7671a;      }      .cls-3 {        fill: #02341d;      }    </style></defs><path class="cls-3" d="M0,0v481.55h428.08V0H0Z"></path><g><path class="cls-2" d="M241.72,340.17H28.34l4.47-14.17h190.63c5.34,5.58,11.5,10.37,18.28,14.17Z"></path><path class="cls-2" d="M399.3,340.17h-81.52c6.78-3.8,12.94-8.59,18.28-14.17h58.77l4.47,14.17Z"></path><path class="cls-2" d="M279.75,204.07c-8.93,0-17.45,1.72-25.26,4.85-4.4,1.75-8.57,3.96-12.46,6.55-18.28,12.2-30.33,33.02-30.33,56.65,0,8.75,1.65,17.11,4.66,24.79,9.91,25.32,34.56,43.26,63.39,43.26s53.49-17.95,63.4-43.28c3-7.68,4.65-16.03,4.65-24.77,0-37.58-30.47-68.05-68.05-68.05ZM338.96,260.21c.66,3.33,1.06,6.77,1.15,10.27h-46.19c-.08-.78-.24-1.53-.44-2.26l35.94-14.89,6.74-2.79c1.19,3.11,2.13,6.34,2.8,9.67ZM323.59,230.6c4.66,4.92,8.51,10.63,11.31,16.9l-6.48,2.68-36.2,15c-.38-.68-.81-1.32-1.29-1.92l32.66-32.66ZM321.26,228.28l-.35.35-32.3,32.3c-.6-.47-1.24-.9-1.92-1.28l12.85-31.02,4.83-11.66c6.27,2.8,11.97,6.64,16.89,11.31ZM281.39,233.34c4.07.77,7.14,4.34,7.14,8.62s-3.07,7.86-7.14,8.63c-.53.1-1.08.16-1.64.16s-1.12-.06-1.65-.16c-4.06-.77-7.14-4.33-7.14-8.63s3.08-7.85,7.14-8.62c.53-.1,1.08-.16,1.65-.16s1.11.06,1.64.16ZM281.39,211.76c7.01.19,13.72,1.57,19.94,3.95l-5.35,12.92-3.76,9.08c-1.6-4.69-5.77-8.19-10.83-8.82v-17.13ZM278.1,211.76v17.13c-5.06.63-9.23,4.13-10.83,8.82l-3.76-9.08-5.35-12.92c6.22-2.38,12.93-3.76,19.94-3.95ZM251.38,218.8c1.22-.65,2.47-1.26,3.74-1.83l4.83,11.66,12.85,31.02c-.68.38-1.32.81-1.92,1.28l-32.65-32.65c3.92-3.71,8.34-6.91,13.15-9.48ZM235.9,230.6l1.03,1.03,31.63,31.63c-.48.6-.91,1.24-1.29,1.91l-36.18-14.98-6.5-2.69c2.81-6.27,6.65-11.98,11.31-16.9ZM223.34,250.54l6.75,2.8,35.92,14.88c-.2.73-.36,1.48-.44,2.26h-46.19c.19-7.02,1.57-13.73,3.96-19.94ZM220.49,283.81c-.64-3.25-1.02-6.62-1.11-10.04h46.19c.08.77.24,1.53.44,2.26l-42.67,17.67c-1.22-3.17-2.18-6.48-2.85-9.89ZM231.23,308.09c-2.6-3.51-4.84-7.31-6.64-11.35l42.68-17.67c.38.67.81,1.31,1.29,1.91l-32.66,32.66c-1.67-1.76-3.22-3.61-4.67-5.55ZM238.29,315.91h-.01s-.01.01-.01.01l-.04.05-.07-.07h-.01s.15-.01.15-.01l32.58-32.58c.6.48,1.25.91,1.92,1.28l-14.33,34.6-20.18-3.28ZM278.1,320.29l-16.14-.91.08-.19,13.8-33.34c.73.21,1.49.36,2.26.45v33.99ZM277,280.86v-5.99h-6.04v-5.5h6.04v-6.08h5.49v6.08h6.04v5.5h-6.04v5.99h-5.49ZM281.39,320.29v-33.99c.78-.09,1.53-.24,2.26-.45l13.81,33.34.08.19-16.15.91ZM301.03,319.19h-.01l-14.33-34.6c.68-.38,1.32-.8,1.92-1.28l32.57,32.58-20.15,3.3ZM321.34,315.9h-.01s-.04.04-.07.07l-.06-.07h-.01s.15-.01.15-.01h0ZM328.26,308.09c-1.45,1.94-3,3.79-4.67,5.55l-32.66-32.66c.48-.6.91-1.24,1.29-1.91l42.68,17.68c-1.81,4.03-4.04,7.83-6.64,11.34ZM336.16,293.71l-42.68-17.68c.2-.73.36-1.49.44-2.26h46.19c-.1,3.41-.47,6.75-1.1,10-.67,3.42-1.63,6.75-2.85,9.94Z"></path></g><g><path class="cls-1" d="M301.02,28.35v.02s-54.64,173.29-54.64,173.29c-25.7,12.22-43.7,38.1-44.56,68.19-.03.75-.04,1.51-.04,2.27,0,14.02,3.72,27.2,10.23,38.58l-.35,1.11h-42.52S258.49,28.37,258.49,28.37v-.02h42.53Z"></path><path class="cls-1" d="M209.81,149.81l-12.78,40.55h-78.93l-38.29,121.44h-42.52C62.44,232.03,101.5,108.12,126.65,28.35h42.52l-38.29,121.46h78.93Z"></path><path class="cls-1" d="M390.37,311.8h-42.52s-.36-1.12-.36-1.12c6.51-11.38,10.23-24.55,10.23-38.56,0-.31,0-.61-.01-.92-.49-42.57-35.28-77.05-77.96-77.05-7.48,0-14.71,1.06-21.56,3.03l2.87-9.1h47.78l-23.89-75.78,21.26-67.42,84.16,266.92Z"></path></g><g><path class="cls-1" d="M51.53,382.59c4.75-2.73,10.16-4.09,16.24-4.09,6.51,0,12.36,1.54,17.56,4.62,5.19,3.08,9.28,7.41,12.28,13,2.99,5.59,4.49,12.08,4.49,19.47s-1.5,13.82-4.49,19.54c-2.99,5.72-7.11,10.16-12.34,13.33-5.24,3.17-11.07,4.75-17.49,4.75s-11.73-1.36-16.43-4.09c-4.71-2.73-8.25-6.21-10.63-10.43v13.33h-12.01v-97.68h12.01v38.81c2.46-4.31,6.07-7.83,10.82-10.56ZM86.51,401.33c-2.2-4.04-5.17-7.13-8.91-9.24-3.74-2.11-7.85-3.17-12.34-3.17s-8.47,1.08-12.21,3.23c-3.74,2.16-6.73,5.28-8.98,9.37-2.24,4.09-3.37,8.82-3.37,14.19s1.12,10.23,3.37,14.32c2.24,4.09,5.23,7.22,8.98,9.37,3.74,2.16,7.81,3.23,12.21,3.23s8.6-1.08,12.34-3.23c3.74-2.15,6.71-5.28,8.91-9.37,2.2-4.09,3.3-8.91,3.3-14.45s-1.1-10.21-3.3-14.26Z"></path><path class="cls-1" d="M138.98,381.79c3.92-2.29,8.69-3.43,14.32-3.43v12.41h-3.17c-13.46,0-20.2,7.3-20.2,21.91v39.34h-12.01v-72.34h12.01v11.75c2.11-4.14,5.13-7.35,9.04-9.64Z"></path><path class="cls-1" d="M167.55,365.56c-1.58-1.58-2.38-3.52-2.38-5.81s.79-4.22,2.38-5.81,3.52-2.38,5.81-2.38,4.07.79,5.61,2.38c1.54,1.58,2.31,3.52,2.31,5.81s-.77,4.22-2.31,5.81c-1.54,1.58-3.41,2.38-5.61,2.38s-4.22-.79-5.81-2.38ZM179.17,379.68v72.34h-12.01v-72.34h12.01Z"></path><path class="cls-1" d="M199.63,396.11c2.99-5.59,7.15-9.92,12.47-13,5.32-3.08,11.42-4.62,18.28-4.62,8.89,0,16.21,2.16,21.98,6.47,5.76,4.31,9.57,10.3,11.42,17.95h-12.94c-1.23-4.4-3.63-7.88-7.19-10.43-3.56-2.55-7.99-3.83-13.27-3.83-6.86,0-12.41,2.36-16.63,7.06-4.22,4.71-6.34,11.38-6.34,20s2.11,15.44,6.34,20.2c4.22,4.75,9.77,7.13,16.63,7.13,5.28,0,9.68-1.23,13.2-3.7,3.52-2.46,5.94-5.98,7.26-10.56h12.94c-1.94,7.39-5.81,13.31-11.62,17.75-5.81,4.45-13.07,6.67-21.78,6.67-6.86,0-12.96-1.54-18.28-4.62-5.33-3.08-9.48-7.44-12.47-13.07-2.99-5.63-4.49-12.23-4.49-19.8s1.5-14.01,4.49-19.6Z"></path><path class="cls-1" d="M320.14,452.02l-28.38-31.95v31.95h-12.01v-97.68h12.01v57.42l27.85-32.08h16.76l-34.06,36.04,34.19,36.3h-16.37Z"></path><path class="cls-1" d="M358.42,450.37c-4.4-1.89-7.88-4.53-10.43-7.92-2.55-3.39-3.96-7.28-4.22-11.68h12.41c.35,3.61,2.05,6.56,5.08,8.84,3.04,2.29,7.02,3.43,11.95,3.43,4.58,0,8.18-1.01,10.82-3.04,2.64-2.02,3.96-4.58,3.96-7.66s-1.41-5.52-4.22-7.06c-2.82-1.54-7.17-3.06-13.07-4.55-5.37-1.41-9.75-2.84-13.13-4.29-3.39-1.45-6.29-3.61-8.71-6.47-2.42-2.86-3.63-6.62-3.63-11.29,0-3.7,1.1-7.08,3.3-10.16,2.2-3.08,5.32-5.52,9.37-7.33,4.05-1.8,8.67-2.71,13.86-2.71,8.01,0,14.47,2.03,19.4,6.07,4.93,4.05,7.57,9.59,7.92,16.63h-12.01c-.26-3.78-1.78-6.82-4.55-9.11-2.77-2.29-6.49-3.43-11.15-3.43-4.31,0-7.75.93-10.3,2.77-2.55,1.85-3.83,4.27-3.83,7.26,0,2.38.77,4.34,2.31,5.87,1.54,1.54,3.48,2.77,5.81,3.7,2.33.92,5.56,1.96,9.7,3.1,5.19,1.41,9.41,2.79,12.67,4.16,3.25,1.37,6.05,3.41,8.38,6.14,2.33,2.73,3.54,6.29,3.63,10.69,0,3.96-1.1,7.52-3.3,10.69-2.2,3.17-5.3,5.66-9.31,7.46-4.01,1.8-8.6,2.71-13.79,2.71-5.54,0-10.52-.95-14.92-2.84Z"></path></g></svg>