<svg class="logo-header w-100 max-height-33px max-height-xl-50px" alt="123 Roulement" xmlns="http://www.w3.org/2000/svg" viewBox="0 0 466.37 67.84"><defs><style>.cls-1{fill:#e84436;}</style></defs><g data-name="Calque 2"><g data-name="Calque 1"><path d="M5.57,15.58l-4.29.92a.8.8,0,0,1-1-.63L0,13.48a1,1,0,0,1,.25-.87l7-5.9h3.42a.91.91,0,0,1,.87.92V38.92a.92.92,0,0,1-.87.93H6.49a.93.93,0,0,1-.92-.93Z"></path><path d="M27.35,37.8C30.57,33.9,36.71,25.91,40,21.57c1.51-1.85,2.49-3.75,2.49-5.41,0-2.19-1.66-4.43-5.17-4.43-2.34,0-4.34,1.66-5.46,2.87a.88.88,0,0,1-1.31,0l-2.34-2.34A1,1,0,0,1,28.13,11s3.8-4.78,9.6-4.78c7,0,10.87,4.44,10.87,9.7,0,3.17-1.37,5.17-3.27,7.89-2.09,3-5.8,7.56-8.38,10.82H47.48a1,1,0,0,1,.92.93v3.36a1,1,0,0,1-.92.93H28.28a.93.93,0,0,1-.93-.93Z"></path><path d="M62.63,34.78l2.49-2.39a.82.82,0,0,1,1.26,0c.15.2,3,2.63,6,2.63,2.63,0,5.16-1.9,5.16-4.58s-2.34-4.82-6.72-4.82H68.09a.91.91,0,0,1-.93-1V21.57a.86.86,0,0,1,.93-1h2.73c4,0,6-2,6-4.49a4.55,4.55,0,0,0-4.73-4.48A6.33,6.33,0,0,0,67.21,14a.88.88,0,0,1-1.31,0l-2.39-2.24a.87.87,0,0,1,0-1.27s3.7-4.29,9.16-4.29c5.65,0,10.38,3.46,10.38,8.92a8.87,8.87,0,0,1-5,7.6v.15c2.29,1,5.9,3.6,5.9,7.94,0,5.51-4.49,9.5-11.21,9.5-6.09,0-9.06-3.07-10.14-4.33A1,1,0,0,1,62.63,34.78Z"></path><path d="M100.45,6.66a.93.93,0,0,1,.92-.93h13.94a10.55,10.55,0,0,1,10.62,10.48c0,4.49-3,8.14-7.21,9.85l6.68,12.37a.93.93,0,0,1-.83,1.42h-5.12a.85.85,0,0,1-.78-.44l-6.48-12.92h-5.41V38.92a1,1,0,0,1-.92.93h-4.49a.93.93,0,0,1-.92-.93Zm14.32,14.62a5,5,0,0,0,4.83-5,4.85,4.85,0,0,0-4.83-4.73h-7.94v9.7Z"></path><path d="M190.89,6.66a1,1,0,0,1,.93-.93h4.63a.93.93,0,0,1,.92.93V26.59c0,4.14,2.83,7.41,7.07,7.41a7,7,0,0,0,7.11-7.36v-20a.93.93,0,0,1,.93-.93h4.63a1,1,0,0,1,.93.93V26.93a13.58,13.58,0,0,1-27.15,0Z"></path><path d="M236.16,6.66a.93.93,0,0,1,.93-.93h4.48a1,1,0,0,1,.93.93V34h12.42a.93.93,0,0,1,.93.93v4a.93.93,0,0,1-.93.93H237.09a.93.93,0,0,1-.93-.93Z"></path><path d="M270.52,6.66a.93.93,0,0,1,.92-.93h19.84a.93.93,0,0,1,.92.93v4a.92.92,0,0,1-.92.92H276.85v8h12a1,1,0,0,1,.93.93v4.05a.93.93,0,0,1-.93.92h-12V34h14.43a.93.93,0,0,1,.92.93v4a.93.93,0,0,1-.92.93H271.44a.93.93,0,0,1-.92-.93Z"></path><path d="M312.48,6a.81.81,0,0,1,.87-.73h.78a.89.89,0,0,1,.83.48l10.72,23h.15l10.72-23a.84.84,0,0,1,.83-.48h.78A.83.83,0,0,1,339,6l5.75,32.75a.85.85,0,0,1-.88,1.12h-4.44a1.06,1.06,0,0,1-.92-.73l-2.88-18.47h-.14L327,39.8a.83.83,0,0,1-.83.53h-.88a.88.88,0,0,1-.83-.53l-8.62-19.15h-.15l-2.82,18.47a1,1,0,0,1-.88.73H307.6a.89.89,0,0,1-.92-1.12Z"></path><path d="M361.21,6.66a.93.93,0,0,1,.92-.93H382a.93.93,0,0,1,.92.93v4a.92.92,0,0,1-.92.92H367.54v8h12a1,1,0,0,1,.92.93v4.05a.92.92,0,0,1-.92.92h-12V34H382a.93.93,0,0,1,.92.93v4a.93.93,0,0,1-.92.93H362.13a.93.93,0,0,1-.92-.93Z"></path><path d="M399.61,6.12a.91.91,0,0,1,.92-.87h1.22L422,26.79h.05V6.66a.93.93,0,0,1,.93-.93h4.48a1,1,0,0,1,.93.93v32.8a.92.92,0,0,1-.93.87h-1.17L405.94,18h-.05v21a.93.93,0,0,1-.92.93h-4.44a1,1,0,0,1-.92-.93Z"></path><path d="M451.6,11.58h-7.45a.93.93,0,0,1-.93-.92v-4a.93.93,0,0,1,.93-.93h21.29a.93.93,0,0,1,.93.93v4a.93.93,0,0,1-.93.92H458V38.92a1,1,0,0,1-.93.93h-4.53a1,1,0,0,1-.93-.93Z"></path><path class="cls-1" d="M158.36,39.79a17.42,17.42,0,0,1-4.48-34.24,17.41,17.41,0,0,1,19.59,25.52,17.34,17.34,0,0,1-10.57,8.12A17.64,17.64,0,0,1,158.36,39.79Zm.06-32.7a15.44,15.44,0,0,0-4,.53,15.26,15.26,0,0,0-3.68,28,15.27,15.27,0,1,0,7.66-28.5Z"></path><path class="cls-1" d="M158.39,14.13a2.55,2.55,0,1,1,2.55-2.55A2.55,2.55,0,0,1,158.39,14.13Zm0-3.57a1,1,0,1,0,1,1A1,1,0,0,0,158.39,10.56Z"></path><path class="cls-1" d="M153,15.58a2.57,2.57,0,0,1-2.21-1.28,2.54,2.54,0,0,1,.93-3.48,2.49,2.49,0,0,1,1.94-.26,2.54,2.54,0,0,1,1.55,1.19h0a2.56,2.56,0,0,1-.94,3.49A2.6,2.6,0,0,1,153,15.58ZM153,12a1,1,0,0,0-.88,1.53,1,1,0,0,0,.61.47,1.06,1.06,0,0,0,.78-.1,1,1,0,0,0,.47-.62,1,1,0,0,0-.1-.77h0a1,1,0,0,0-.62-.48Z"></path><path class="cls-1" d="M149.05,19.53a2.55,2.55,0,0,1-2.21-3.83,2.56,2.56,0,0,1,3.49-.94h0a2.56,2.56,0,0,1-.62,4.68A2.5,2.5,0,0,1,149.05,19.53Zm0-3.57a1.09,1.09,0,0,0-.26,0,1,1,0,0,0-.62.47,1,1,0,0,0-.1.78,1,1,0,0,0,1.24.72,1,1,0,0,0,.62-.48,1,1,0,0,0-.37-1.39h0A1,1,0,0,0,149.05,16Z"></path><path class="cls-1" d="M147.61,24.92a2.56,2.56,0,1,1,2.55-2.55A2.56,2.56,0,0,1,147.61,24.92Zm0-3.57a1,1,0,1,0,1,1A1,1,0,0,0,147.61,21.35Z"></path><path class="cls-1" d="M149.05,30.31A2.57,2.57,0,0,1,146.84,29a2.54,2.54,0,0,1,.93-3.48h0a2.58,2.58,0,0,1,1.94-.26,2.55,2.55,0,0,1-.66,5Zm0-3.57a1,1,0,0,0-.51.14h0a1,1,0,0,0,1,1.76,1,1,0,0,0-.25-1.87A1.09,1.09,0,0,0,149.05,26.74Z"></path><path class="cls-1" d="M153,34.26a2.6,2.6,0,0,1-1.27-.34,2.55,2.55,0,0,1-.93-3.49h0a2.54,2.54,0,0,1,1.55-1.19,2.46,2.46,0,0,1,1.93.26A2.55,2.55,0,0,1,153,34.26Zm-.87-3.06a1,1,0,0,0,.37,1.39,1,1,0,0,0,.77.1,1,1,0,0,0,.62-.47,1,1,0,0,0,.1-.78,1,1,0,0,0-.47-.62,1.06,1.06,0,0,0-.78-.1,1,1,0,0,0-.61.48Z"></path><path class="cls-1" d="M158.39,35.7a2.55,2.55,0,1,1,2.55-2.55A2.55,2.55,0,0,1,158.39,35.7Zm0-3.57a1,1,0,1,0,1,1A1,1,0,0,0,158.39,32.13Z"></path><path class="cls-1" d="M163.79,34.26A2.55,2.55,0,0,1,161.57,33h0a2.55,2.55,0,0,1,.94-3.48,2.46,2.46,0,0,1,1.93-.26,2.55,2.55,0,0,1-.65,5Zm-.89-2a1,1,0,0,0,1.87-.25,1,1,0,0,0-.11-.77,1,1,0,0,0-.61-.48,1.06,1.06,0,0,0-.78.1,1,1,0,0,0-.37,1.4Z"></path><path class="cls-1" d="M167.73,30.31a2.55,2.55,0,0,1-2.47-1.89,2.58,2.58,0,0,1,.26-1.94,2.54,2.54,0,0,1,1.55-1.19,2.58,2.58,0,0,1,1.94.26,2.55,2.55,0,0,1,.93,3.48,2.57,2.57,0,0,1-2.21,1.28Zm0-3.57a1.09,1.09,0,0,0-.26,0,1,1,0,0,0-.62.48,1,1,0,0,0-.1.77,1,1,0,0,0,.47.62h0a1,1,0,0,0,1.39-.37,1,1,0,0,0-.37-1.39A1,1,0,0,0,167.73,26.74Z"></path><path class="cls-1" d="M169.17,24.92a2.56,2.56,0,1,1,2.56-2.55A2.56,2.56,0,0,1,169.17,24.92Zm0-3.57a1,1,0,1,0,1,1A1,1,0,0,0,169.17,21.35Z"></path><path class="cls-1" d="M167.73,19.53a2.5,2.5,0,0,1-.66-.09,2.54,2.54,0,0,1-1.55-1.19,2.58,2.58,0,0,1-.26-1.94,2.55,2.55,0,0,1,3.13-1.8,2.51,2.51,0,0,1,1.55,1.19,2.56,2.56,0,0,1-2.21,3.83Zm0-3.57a1,1,0,0,0-.51.13,1,1,0,0,0-.47.62,1,1,0,0,0,.1.77,1,1,0,0,0,.62.48,1,1,0,0,0,.77-.1h0a1,1,0,0,0,.37-1.4A1,1,0,0,0,168,16,1.09,1.09,0,0,0,167.73,16Z"></path><path class="cls-1" d="M163.78,15.58a2.6,2.6,0,0,1-1.27-.34,2.55,2.55,0,1,1,3.74-2.87,2.57,2.57,0,0,1-2.47,3.21Zm0-3.57a1,1,0,0,0-.88.51,1,1,0,0,0,.37,1.39,1.06,1.06,0,0,0,.78.1,1,1,0,0,0,.61-.47h0a1,1,0,0,0-.88-1.53Z"></path><path class="cls-1" d="M178.54,45h-6.42a1,1,0,0,1,0-1.93h6.42a1,1,0,0,1,0,1.93Z"></path><path class="cls-1" d="M178.54,45a1,1,0,0,1-1-1V37.6a1,1,0,0,1,1.92,0V44A1,1,0,0,1,178.54,45Z"></path><path class="cls-1" d="M138.19,45a1,1,0,0,1-1-1V37.6a1,1,0,0,1,1.93,0V44A1,1,0,0,1,138.19,45Z"></path><path class="cls-1" d="M144.6,45h-6.41a1,1,0,1,1,0-1.93h6.41a1,1,0,0,1,0,1.93Z"></path><path class="cls-1" d="M144.6,1.92h-6.41a1,1,0,1,1,0-1.92h6.41a1,1,0,1,1,0,1.92Z"></path><path class="cls-1" d="M138.19,8.34a1,1,0,0,1-1-1V1a1,1,0,0,1,1.93,0V7.38A1,1,0,0,1,138.19,8.34Z"></path><path class="cls-1" d="M178.54,8.34a1,1,0,0,1-1-1V1a1,1,0,0,1,1.92,0V7.38A1,1,0,0,1,178.54,8.34Z"></path><path class="cls-1" d="M178.54,1.92h-6.42a1,1,0,0,1,0-1.92h6.42a1,1,0,1,1,0,1.92Z"></path><path d="M354.29,54.9c2.43,0,3.64,1,3.64,2.83a2.91,2.91,0,0,1-.73,2,3.55,3.55,0,0,1-2.06,1.06v.08a2.75,2.75,0,0,1,1.48.93,2.51,2.51,0,0,1,.52,1.59,3.35,3.35,0,0,1-1.28,2.8,5.35,5.35,0,0,1-3.43,1h-3.9l2.61-12.32ZM350.23,66h2.24a3.61,3.61,0,0,0,2.34-.68,2.37,2.37,0,0,0,.82-1.92,1.81,1.81,0,0,0-.63-1.49,2.75,2.75,0,0,0-1.81-.52h-2Zm1.23-5.82h2.09a3.3,3.3,0,0,0,2.1-.62,2,2,0,0,0,.78-1.68,1.54,1.54,0,0,0-.56-1.31,2.94,2.94,0,0,0-1.76-.43h-1.78Z"></path><path d="M364.6,61.2l4.12-6.3h1.63l-5.28,7.76-1,4.56h-1.45l1-4.63-2-7.69h1.43Z"></path><path d="M380.38,62.1l-1.08,5.12h-1.44l2.61-12.32h2.69q3.76,0,3.76,3.09,0,2.92-3.1,3.78l2,5.45h-1.56l-1.76-5.12Zm1.24-5.94c-.57,2.77-.9,4.34-1,4.71h1.42a3.84,3.84,0,0,0,2.5-.72,2.48,2.48,0,0,0,.88-2,1.78,1.78,0,0,0-.57-1.48,2.94,2.94,0,0,0-1.85-.46Z"></path><path d="M403.78,67.22l2.61-12.32h1.43l-2.33,11h4.76l-.27,1.3Z"></path><path d="M413.91,67.22l2.61-12.32H418l-2.33,11h4.76l-.27,1.3Z"></path><path d="M430.17,63.3H426l-2.06,3.92h-1.6l6.74-12.32h1.46l1.55,12.32h-1.43ZM430,62l-.3-2.52c-.13-1-.21-2-.24-2.95-.21.49-.43,1-.68,1.47s-.94,1.82-2.1,4Z"></path><path d="M443.56,67.22H442q-.6-1.53-1.23-3c-.42-1-.83-2-1.23-3l-1.47,1.1-1.05,5h-1.44l2.61-12.32h1.43l-1.27,6,5.9-6H446l-5.39,5.37Z"></path><path d="M447.14,67.22l2.62-12.32h1.41l-2.62,12.32Z"></path><path d="M462.67,67.22h-1.52l-3.88-10.3h0c-.18,1.24-.39,2.41-.62,3.52l-1.45,6.78h-1.37l2.6-12.32h1.52l3.87,10.28h.05c.17-1.26.37-2.39.61-3.41l1.46-6.87h1.38Z"></path><path class="cls-1" d="M395.66,66.34a5,5,0,0,1-4.84-3.72A5,5,0,1,1,397,66.17,5.42,5.42,0,0,1,395.66,66.34Zm0-9.42a4.46,4.46,0,0,0-1.14.15,4.4,4.4,0,0,0-3.11,5.39,4.4,4.4,0,0,0,8.5-2.28,4.4,4.4,0,0,0-4.25-3.26Z"></path><path class="cls-1" d="M395.67,59a.74.74,0,1,1,.73-.74A.74.74,0,0,1,395.67,59Zm0-1a.29.29,0,1,0,.29.29A.29.29,0,0,0,395.67,57.92Z"></path><path class="cls-1" d="M394.11,59.36l-.19,0a.74.74,0,0,1-.45-.34.74.74,0,0,1,.27-1,.75.75,0,0,1,1,.27h0a.73.73,0,0,1,.07.56.74.74,0,0,1-.71.54Zm0-1a.33.33,0,0,0-.14,0,.29.29,0,0,0-.11.4.28.28,0,0,0,.18.14.29.29,0,0,0,.22,0,.28.28,0,0,0,.14-.18.29.29,0,0,0,0-.22h0a.31.31,0,0,0-.18-.14Z"></path><path class="cls-1" d="M393,60.5a.68.68,0,0,1-.36-.1.71.71,0,0,1-.27-1,.77.77,0,0,1,.44-.35.73.73,0,0,1,.56.08h0a.73.73,0,0,1,.27,1,.79.79,0,0,1-.45.35Zm0-1h-.07a.28.28,0,0,0-.18.14.29.29,0,0,0,0,.22.29.29,0,0,0,.54.07.29.29,0,0,0-.11-.4h0A.24.24,0,0,0,393,59.47Z"></path><path class="cls-1" d="M392.56,62.06a.74.74,0,0,1,0-1.48.74.74,0,0,1,0,1.48Zm0-1a.29.29,0,1,0,0,.58.29.29,0,1,0,0-.58Z"></path><path class="cls-1" d="M393,63.61a.69.69,0,0,1-.2,0,.72.72,0,0,1-.44-.34.73.73,0,0,1-.08-.56.7.7,0,0,1,.35-.44h0a.71.71,0,0,1,.55-.08.75.75,0,0,1,.45.35.73.73,0,0,1-.27,1A.68.68,0,0,1,393,63.61Zm0-1a.23.23,0,0,0-.14,0h0a.28.28,0,0,0-.14.18.29.29,0,0,0,0,.22.28.28,0,0,0,.18.14.29.29,0,0,0,.22,0,.29.29,0,0,0,.11-.4.28.28,0,0,0-.18-.14Z"></path><path class="cls-1" d="M394.11,64.75a.82.82,0,0,1-.37-.1.75.75,0,0,1-.27-1h0a.74.74,0,0,1,.45-.34.78.78,0,0,1,.56.07.74.74,0,0,1-.18,1.35A.63.63,0,0,1,394.11,64.75Zm-.25-.89a.31.31,0,0,0,.11.41.28.28,0,0,0,.22,0,.29.29,0,0,0,.18-.13.29.29,0,0,0,0-.22.28.28,0,0,0-.14-.18.29.29,0,0,0-.22,0,.3.3,0,0,0-.18.13Z"></path><path class="cls-1" d="M395.67,65.16a.74.74,0,1,1,.73-.73A.74.74,0,0,1,395.67,65.16Zm0-1a.3.3,0,0,0-.3.3.3.3,0,0,0,.59,0A.3.3,0,0,0,395.67,64.13Z"></path><path class="cls-1" d="M397.22,64.75a.74.74,0,0,1-.64-.37h0a.75.75,0,0,1,.27-1,.78.78,0,0,1,.56-.07.74.74,0,0,1,.18,1.35A.71.71,0,0,1,397.22,64.75Zm-.25-.59a.29.29,0,0,0,.53-.07.31.31,0,0,0,0-.23.28.28,0,0,0-.17-.13.31.31,0,0,0-.23,0,.29.29,0,0,0-.1.4Z"></path><path class="cls-1" d="M398.36,63.61a.69.69,0,0,1-.37-.1.74.74,0,0,1-.34-.45.71.71,0,0,1,.07-.55.75.75,0,0,1,.45-.35.74.74,0,1,1,.38,1.42A.63.63,0,0,1,398.36,63.61Zm0-1h-.08a.31.31,0,0,0-.18.14.32.32,0,0,0,0,.22.32.32,0,0,0,.14.18h0a.29.29,0,0,0,.22,0,.28.28,0,0,0,.18-.14.29.29,0,0,0-.1-.4A.28.28,0,0,0,398.36,62.58Z"></path><path class="cls-1" d="M398.77,62.06a.74.74,0,1,1,.74-.74A.74.74,0,0,1,398.77,62.06Zm0-1a.29.29,0,1,0,.3.29A.29.29,0,0,0,398.77,61Z"></path><path class="cls-1" d="M398.36,60.5l-.19,0a.79.79,0,0,1-.45-.35.73.73,0,0,1-.07-.56.72.72,0,0,1,.34-.44.73.73,0,0,1,.56-.08.79.79,0,0,1,.45.35.73.73,0,0,1-.27,1A.71.71,0,0,1,398.36,60.5Zm0-1a.28.28,0,0,0-.15,0,.32.32,0,0,0-.14.18.34.34,0,0,0,0,.22.31.31,0,0,0,.18.14.31.31,0,0,0,.23,0h0a.29.29,0,0,0,.1-.4.28.28,0,0,0-.18-.14Z"></path><path class="cls-1" d="M397.22,59.36a.71.71,0,0,1-.37-.1.73.73,0,0,1-.27-1,.75.75,0,0,1,1-.27.74.74,0,0,1-.18,1.35Zm0-1a.29.29,0,0,0-.25.15.29.29,0,0,0,.1.4.31.31,0,0,0,.23,0,.26.26,0,0,0,.17-.14h0a.28.28,0,0,0,0-.22.29.29,0,0,0-.13-.18A.42.42,0,0,0,397.22,58.33Z"></path><path class="cls-1" d="M401.47,67.84h-1.85a.28.28,0,0,1,0-.56h1.85a.28.28,0,1,1,0,.56Z"></path><path class="cls-1" d="M401.47,67.84a.28.28,0,0,1-.27-.28V65.71a.28.28,0,1,1,.55,0v1.85A.28.28,0,0,1,401.47,67.84Z"></path><path class="cls-1" d="M389.84,67.84a.28.28,0,0,1-.27-.28V65.71a.28.28,0,1,1,.55,0v1.85A.28.28,0,0,1,389.84,67.84Z"></path><path class="cls-1" d="M391.69,67.84h-1.85a.28.28,0,0,1,0-.56h1.85a.28.28,0,0,1,0,.56Z"></path><path class="cls-1" d="M391.69,55.43h-1.85a.28.28,0,0,1,0-.56h1.85a.28.28,0,0,1,0,.56Z"></path><path class="cls-1" d="M389.84,57.28a.28.28,0,0,1-.27-.28V55.15a.28.28,0,1,1,.55,0V57A.28.28,0,0,1,389.84,57.28Z"></path><path class="cls-1" d="M401.47,57.28a.28.28,0,0,1-.27-.28V55.15a.28.28,0,1,1,.55,0V57A.28.28,0,0,1,401.47,57.28Z"></path><path class="cls-1" d="M401.47,55.43h-1.85a.28.28,0,0,1,0-.56h1.85a.28.28,0,1,1,0,.56Z"></path></g></g></svg>