<?xml version="1.0" encoding="UTF-8"?> <svg xmlns="http://www.w3.org/2000/svg" viewBox="0 0 261.21 90.82"><defs><clipPath id="a"><path fill="none" d="M0 14.78S0 0 14.78 0h231.66s14.77.05 14.77 14.78v61.27s0 14.77-14.77 14.77H14.78S0 90.79 0 76.05z"></path></clipPath></defs><g data-name="Calque 2" style="isolation:isolate"><g clip-path="url(#a)" data-name="Calque 1"><path fill="#b42e1e" d="M0 0h261.21v90.82H0z"></path><path fill="#fff" d="M117.84 73.42H75.65V17.07h42.19V29.8H94.45l.03 10.25h19.44v12.06l-19.44.06v8.57h23.36v12.68zm59.99-56.35h18.73v56.34h-18.73zm-53.84 0v12.56h14.65v43.79h18.51V29.63h14.66V17.07h-47.82zm78.72 0h40.72v12.66h-21.68v10.53h18.05v12.28h-18.13v21.04h-18.96V17.07zm-185.01 0h30.6s21.1 1.05 21.1 18.64c0 0 .93 8.49-9.5 14.65l14.46 23H50.91l-11.1-19.47H36.2l-.09 19.46H17.7zm34.81 19.34c0-5.71-7-6-7-6h-9.65v12h9.67s7-.3 7-6" style="mix-blend-mode:screen"></path></g></g></svg> 