<svg xmlns="http://www.w3.org/2000/svg" fill="none" viewBox="0 0 280 72" class="studio-logo studio-landing__header-logo"><g clip-path="url(#clip0_568_2723)"><path fill="#fff" fill-rule="evenodd" d="M44.656 3.378l24.466 24.466c4.504 4.505 4.504 11.807 0 16.312L44.656 68.621c-4.505 4.504-11.807 4.504-16.311 0L3.878 44.156c-4.504-4.505-4.504-11.807 0-16.311L28.344 3.378c4.505-4.504 11.807-4.504 16.312 0z" clip-rule="evenodd"></path><path fill="url(#paint0_linear_568_2723)" fill-rule="evenodd" d="M43.892 6.436L66.064 28.61c4.082 4.082 4.082 10.7 0 14.782L43.892 65.564c-4.082 4.082-10.7 4.082-14.782 0L6.937 43.39c-4.081-4.082-4.081-10.7 0-14.782L29.11 6.436c4.082-4.081 10.7-4.081 14.782 0z" clip-rule="evenodd"></path><g fill-rule="evenodd" clip-rule="evenodd" filter="url(#filter0_i_568_2723)"><path fill="#2C2E35" d="M42.937 8.59L63.91 29.563a9.101 9.101 0 010 12.871L42.938 63.41a9.101 9.101 0 01-12.871 0L9.09 42.436a9.101 9.101 0 010-12.872L30.066 8.59a9.101 9.101 0 0112.87 0z"></path><path fill="url(#paint1_linear_568_2723)" d="M42.937 8.59L63.91 29.563a9.101 9.101 0 010 12.871L42.938 63.41a9.101 9.101 0 01-12.871 0L9.09 42.436a9.101 9.101 0 010-12.872L30.066 8.59a9.101 9.101 0 0112.87 0z" style="mix-blend-mode: soft-light;"></path></g><g filter="url(#filter1_d_568_2723)"><ellipse cx="19.169" cy="36" fill="#72C850" rx="8.666" ry="8.666"></ellipse></g><g filter="url(#filter2_d_568_2723)"><ellipse cx="53.834" cy="36" fill="#F45C40" rx="8.666" ry="8.666"></ellipse></g><g filter="url(#filter3_d_568_2723)"><ellipse cx="36.502" cy="53.332" fill="#F7D117" rx="8.666" ry="8.666"></ellipse></g><g filter="url(#filter4_d_568_2723)"><ellipse cx="36.502" cy="18.668" fill="#42C0FB" rx="8.666" ry="8.666"></ellipse></g><path fill="#fff" d="M103.168 44.07c6.142 1.215 7.897 3.038 7.897 6.345 0 3.443-3.51 5.805-8.91 5.805-5.332 0-8.1-1.957-9.315-5.873-.405-1.282-1.62-1.822-2.903-1.822-.27 0-.607.068-.944.135-1.283.27-2.43 1.215-2.43 2.565 0 .27.067.54.135.877 1.755 6.008 6.817 9.45 15.457 9.45 9.45 0 14.985-4.792 14.985-11.272 0-7.087-3.51-9.653-12.285-11.475l-4.185-.877c-5.67-1.215-6.953-2.566-6.953-5.67 0-2.836 2.566-5.063 8.033-5.063 3.848 0 6.818 1.552 7.695 4.59.338 1.283 1.553 1.823 2.768 1.823.337 0 .742-.068 1.08-.136 1.215-.337 2.362-1.215 2.362-2.497 0-.27-.067-.54-.135-.81-1.687-4.927-6.48-8.1-13.972-8.1-8.708 0-13.973 4.185-13.973 10.327 0 6.413 3.442 9.316 11.745 10.935l3.848.743zM128.399 23.078h-5.197c-1.688 0-2.43 1.147-2.43 2.7 0 1.552.742 2.632 2.362 2.632h5.265v23.152c0 7.088 4.05 9.855 9.585 9.855 2.903 0 4.725-.54 6.683-1.485 1.012-.54 1.417-1.485 1.417-2.43 0-.472-.067-1.012-.27-1.485-.405-1.012-1.215-1.755-2.227-1.755-.405 0-.81.136-1.215.338-1.148.675-2.295 1.148-3.983 1.148-2.497 0-3.915-1.418-3.915-4.725V28.41h8.64c1.62 0 2.498-1.08 2.498-2.633 0-1.62-.81-2.7-2.498-2.7h-8.64V14.91c0-1.755-1.282-2.7-3.037-2.7-1.89 0-3.038.945-3.038 2.7v8.168zM152.317 48.255c0 8.235 4.388 13.23 12.353 13.23 6.75 0 10.665-3.443 12.757-8.167-.202 1.08-.405 2.43-.405 3.172v1.89c0 1.688 1.283 2.497 3.105 2.497 1.755 0 2.97-.877 2.97-2.7V25.373c0-1.822-1.282-2.7-3.037-2.7-1.823 0-3.105.878-3.105 2.7v18.766c0 2.632-.675 4.724-2.295 7.02-2.295 3.172-5.198 4.86-8.775 4.86-4.995 0-7.358-3.24-7.358-9.046v-21.6c0-1.822-1.282-2.7-3.105-2.7-1.822 0-3.105.878-3.105 2.7v22.883z"></path><path fill="#fff" fill-rule="evenodd" d="M217.514 29.895c-.135-1.552-.27-3.51-.27-4.995V10.185c0-1.823 1.283-2.7 2.97-2.7 1.89 0 3.038.877 3.038 2.7v47.992c0 1.823-1.215 2.7-3.105 2.7-1.958 0-2.903-1.08-2.903-2.497v-1.418c0-.543.073-1.447.138-2.263.024-.3.047-.588.065-.841-2.295 4.725-6.143 7.627-12.42 7.627-9.855 0-16.065-7.763-16.065-19.913 0-11.812 6.142-19.44 16.132-19.44 6.278 0 10.058 2.97 12.42 7.763zm-.135 11.813c0-8.236-4.05-14.31-11.475-14.31-6.817 0-10.732 5.67-10.732 14.242 0 8.843 3.915 14.58 10.732 14.58 7.088 0 11.475-6.142 11.475-14.512zM230.72 11.94c0-2.565 2.025-4.522 4.59-4.522 2.498 0 4.523 1.957 4.523 4.522 0 2.633-2.025 4.59-4.523 4.59-2.565 0-4.59-1.958-4.59-4.59zm4.522 48.938c-1.89 0-3.037-.878-3.037-2.7V25.305c0-1.755 1.147-2.632 3.037-2.632 1.823 0 3.105.877 3.105 2.632v32.873c0 1.822-1.282 2.7-3.105 2.7zM244.745 41.708c0-11.678 6.547-19.575 17.482-19.575 10.8 0 17.145 7.83 17.145 19.575s-6.48 19.845-17.01 19.845c-11.137 0-17.617-7.83-17.617-19.845zm28.417-.068c0-8.505-3.848-14.31-10.733-14.31-7.29 0-11.475 5.602-11.475 14.58 0 8.573 4.05 14.445 11.003 14.445 7.357 0 11.205-5.737 11.205-14.715z" clip-rule="evenodd"></path></g><defs><filter id="filter0_i_568_2723" width="60.152" height="60.152" x="6.425" y="5.924" color-interpolation-filters="sRGB" filterUnits="userSpaceOnUse"><feFlood flood-opacity="0" result="BackgroundImageFix"></feFlood><feBlend in="SourceGraphic" in2="BackgroundImageFix" result="shape"></feBlend><feColorMatrix in="SourceAlpha" result="hardAlpha" values="0 0 0 0 0 0 0 0 0 0 0 0 0 0 0 0 0 0 127 0"></feColorMatrix><feOffset></feOffset><feGaussianBlur stdDeviation="0.43"></feGaussianBlur><feComposite in2="hardAlpha" k2="-1" k3="1" operator="arithmetic"></feComposite><feColorMatrix values="0 0 0 0 0.138755 0 0 0 0 0.164163 0 0 0 0 0.251276 0 0 0 0.5 0"></feColorMatrix><feBlend in2="shape" result="effect1_innerShadow_568_2723"></feBlend></filter><filter id="filter1_d_568_2723" width="17.332" height="20.546" x="10.503" y="27.334" color-interpolation-filters="sRGB" filterUnits="userSpaceOnUse"><feFlood flood-opacity="0" result="BackgroundImageFix"></feFlood><feColorMatrix in="SourceAlpha" result="hardAlpha" values="0 0 0 0 0 0 0 0 0 0 0 0 0 0 0 0 0 0 127 0"></feColorMatrix><feOffset dy="3.214"></feOffset><feColorMatrix values="0 0 0 0 0.117647 0 0 0 0 0.117647 0 0 0 0 0.14902 0 0 0 1 0"></feColorMatrix><feBlend in2="BackgroundImageFix" result="effect1_dropShadow_568_2723"></feBlend><feBlend in="SourceGraphic" in2="effect1_dropShadow_568_2723" result="shape"></feBlend></filter><filter id="filter2_d_568_2723" width="17.332" height="20.546" x="45.168" y="27.334" color-interpolation-filters="sRGB" filterUnits="userSpaceOnUse"><feFlood flood-opacity="0" result="BackgroundImageFix"></feFlood><feColorMatrix in="SourceAlpha" result="hardAlpha" values="0 0 0 0 0 0 0 0 0 0 0 0 0 0 0 0 0 0 127 0"></feColorMatrix><feOffset dy="3.214"></feOffset><feColorMatrix values="0 0 0 0 0.117647 0 0 0 0 0.117647 0 0 0 0 0.14902 0 0 0 1 0"></feColorMatrix><feBlend in2="BackgroundImageFix" result="effect1_dropShadow_568_2723"></feBlend><feBlend in="SourceGraphic" in2="effect1_dropShadow_568_2723" result="shape"></feBlend></filter><filter id="filter3_d_568_2723" width="17.332" height="20.546" x="27.835" y="44.666" color-interpolation-filters="sRGB" filterUnits="userSpaceOnUse"><feFlood flood-opacity="0" result="BackgroundImageFix"></feFlood><feColorMatrix in="SourceAlpha" result="hardAlpha" values="0 0 0 0 0 0 0 0 0 0 0 0 0 0 0 0 0 0 127 0"></feColorMatrix><feOffset dy="3.214"></feOffset><feColorMatrix values="0 0 0 0 0.117647 0 0 0 0 0.117647 0 0 0 0 0.14902 0 0 0 1 0"></feColorMatrix><feBlend in2="BackgroundImageFix" result="effect1_dropShadow_568_2723"></feBlend><feBlend in="SourceGraphic" in2="effect1_dropShadow_568_2723" result="shape"></feBlend></filter><filter id="filter4_d_568_2723" width="17.332" height="20.546" x="27.835" y="10.002" color-interpolation-filters="sRGB" filterUnits="userSpaceOnUse"><feFlood flood-opacity="0" result="BackgroundImageFix"></feFlood><feColorMatrix in="SourceAlpha" result="hardAlpha" values="0 0 0 0 0 0 0 0 0 0 0 0 0 0 0 0 0 0 127 0"></feColorMatrix><feOffset dy="3.214"></feOffset><feColorMatrix values="0 0 0 0 0.117647 0 0 0 0 0.117647 0 0 0 0 0.14902 0 0 0 1 0"></feColorMatrix><feBlend in2="BackgroundImageFix" result="effect1_dropShadow_568_2723"></feBlend><feBlend in="SourceGraphic" in2="effect1_dropShadow_568_2723" result="shape"></feBlend></filter><linearGradient id="paint0_linear_568_2723" x1="3.876" x2="3.876" y1="3.375" y2="68.625" gradientUnits="userSpaceOnUse"><stop stop-color="#636A82"></stop><stop offset="1" stop-color="#414554"></stop></linearGradient><linearGradient id="paint1_linear_568_2723" x1="-18.419" x2="36.302" y1="37.239" y2="91.256" gradientUnits="userSpaceOnUse"><stop stop-color="#fff" stop-opacity="0.5"></stop><stop offset="1" stop-color="#fff" stop-opacity="0.01"></stop></linearGradient><clipPath id="clip0_568_2723"><path fill="#fff" d="M0 0H279V72H0z" transform="translate(.5)"></path></clipPath></defs></svg>
