<?xml version="1.0" encoding="UTF-8"?>
<svg id="Layer_1" data-name="Layer 1" xmlns="http://www.w3.org/2000/svg" viewBox="0 0 1736.96 766.32">
  <defs>
    <style>
      .cls-1 {
        fill: #fff;
        stroke-width: 0px;
      }
    </style>
  </defs>
  <path class="cls-1" d="M1516.85,2.59c-103.22,0-174.54,40.92-222.84,98.1-8.16-17.11-14.35-24.61-23.07-34.48C1231.42,21.53,1167.88.67,1082.61.67s-152.76,26.02-200.98,66.99C856.57,26.96,796.89,0,724.91,0c-94.05,0-196.54,13.3-257.33,111.27-1.46-35.27-4.65-53.94-24.48-74.93-24.1-25.51-63.09-32.17-101.08-32.17-69.22,0-121.28,30.24-158.76,91.81C128.88,182.84-2.92,468.59.05,607.01c1.93,89.4,61.91,153.83,169.24,156.37,83.88,2,149.66-20.42,191.51-62.67,37.55,40.81,94.85,64.74,163.4,64.74,76.34,0,153.17-22.93,198.53-73.02,38.22,46.95,98.36,74.28,175.7,73.9,101.11-.43,189.92-48.45,247.92-121.92,31.83,86.64,112.52,121.05,200.68,121.05,193.19,0,278.03-132.86,348.75-342.9,15.92-47.31,37.19-126.31,40.71-192.66,5.83-110.45-40.89-227.29-219.64-227.29h0ZM231.42,530.69c99.95-17.36,125.08,18.78,121.94,52.24-9.43,100.18-101.34,122.59-181.14,120.71-57.88-1.3-109.92-27.89-111.37-95.09-2.54-117.54,117.36-389.51,173.8-479.65,26.06-42.8,57.82-63.96,108.48-63.96,48,0,59.89,24.65,59.19,54.17-1.89,78.75-129.14,318.08-170.89,411.58ZM556.92,438.36c-6.61,17.88-19.14,55.37-29.26,95.12,32.81-8.19,57.41-13.91,99.56-12.9,48.03,1.16,78.72,21.08,78.72,60.79,0,96.29-106.41,124.55-180.22,124.55-81.04,0-152.24-46.14-152.24-134.76,0-103.92,56.33-261.46,109.18-366.42,64.92-128.89,131.24-146.02,245.47-146.02,50.21,0,108.04,21.48,108.04,68.87,0,65.7-55.66,90.77-110.85,93.92-23.56,1.3-59.83,2.65-81.54,1.01,0,0-18.36,27.99-37.89,77.84,102.19-14.39,145.53,8.8,128.28,67.92-23.34,79.86-92.53,85.13-177.26,69.97v.1ZM1059.55,189.89c-27.63,0-45.71,17.5-59.17,36.4-29.61,41.6-93.8,208.28-103.79,276.77-6.85,46.91,13.4,56.45,35.55,56.45,35.5,0,75.31-37.57,88.89-99.56,0,0-67.6-1.64-48.96-61.58,18.11-58.17,52.45-70.77,109.4-73.11,112.19-4.59,101.11,78.25,92.13,122.43-29.16,143.44-131.25,258.67-275.67,258.67-98.87,0-160.24-54.69-160.24-155.53,0-71.81,35.64-184.61,63.89-250.6,60.13-140.47,123.19-238.77,283.85-238.77,96.37,0,172.41,34.64,161.27,124.94-8.17,66.28-41.35,105.2-101.6,109.9-16.85,1.3-85.81-.43-62.93-65.67,7.98-22.81,11.27-40.74-22.63-40.74h0ZM1666.31,308.45c-16.98,84.58-55.18,184.62-96.66,259.19-67.66,121.66-149.84,138.69-221.57,137.83-71.76-.87-152.62-27.35-153.24-138.03-.43-79.46,33.85-191.64,62.93-265.14,50.72-133.28,102.55-241.96,266.39-240.01,191.07,2.27,157,172.19,142.13,246.16h0ZM1504.22,192.67c-16.4-.14-30.71,2.98-43.57,22.83-28.9,37.46-113.4,268.35-111.92,314.41.54,16.53,9.68,31.02,30.06,31.02,23.38.01,36.37-16.13,47.87-35.64,26.58-45.01,101.36-249.1,103.41-300.13.61-14.86-1.87-32.19-25.84-32.48h0Z"/>
</svg>